<?xml version="1.0" encoding="utf-8"?>
<!-- Generator: Adobe Illustrator 26.2.1, SVG Export Plug-In . SVG Version: 6.00 Build 0)  -->
<svg version="1.1" id="Layer_1" xmlns="http://www.w3.org/2000/svg" xmlns:xlink="http://www.w3.org/1999/xlink" x="0px" y="0px"
	 viewBox="0 0 500 500" style="enable-background:new 0 0 500 500;" xml:space="preserve">
<style type="text/css">
	.st0{fill:#1B1A17;}
</style>
<path class="st0" d="M171.77,336.37l13.59-11.33c21.53-19.03,39.2-38.74,39.2-63.67c0-26.52-18.13-46-51.66-46
	c-19.71,0-37.16,6.79-48.03,15.18l9.74,24.47c7.7-5.67,18.81-12.01,31.49-12.01c17,0,24.02,9.52,24.02,21.53
	c-0.22,17.22-15.86,33.76-48.26,62.76l-18.81,17v20.84h104.45v-28.33h-55.74V336.37z"/>
<polygon class="st0" points="473.57,142.98 473.57,142.98 429.03,142.98 383.14,310.93 337.24,142.98 292.7,142.98 272.05,142.98 
	272.05,365.15 316.59,365.15 316.59,237.02 349.14,365.15 368.31,365.15 397.95,365.15 417.13,365.15 449.68,237.02 449.68,365.15 
	494.22,365.15 494.22,142.98 "/>
<polygon class="st0" points="55.74,290.26 55.74,142.98 27.41,142.98 5.33,153.19 5.33,181.48 21.98,173.57 22.42,173.57 
	22.42,290.26 "/>
<polygon class="st0" points="107.08,142.98 46.37,365.15 82.69,365.15 139.14,142.98 "/>
</svg>
