<?xml version="1.0" encoding="utf-8"?>
<!-- Generator: Adobe Illustrator 26.2.1, SVG Export Plug-In . SVG Version: 6.00 Build 0)  -->
<svg version="1.1" id="Layer_1" xmlns="http://www.w3.org/2000/svg" xmlns:xlink="http://www.w3.org/1999/xlink" x="0px" y="0px"
	 viewBox="0 0 500 500" style="enable-background:new 0 0 500 500;" xml:space="preserve">
<style type="text/css">
	.st0{fill:#3CB4E5;}
	.st1{fill:#5B6670;}
</style>
<g>
	<path class="st0" d="M444.46,297.13c5.39,4.36,13.3,3.54,17.67-1.85l29.38-36.26c4.37-5.39,3.55-13.3-1.85-17.67l-36.24-29.38
		c-5.39-4.37-13.31-3.55-17.68,1.84l-20.13,24.85l6.97,5.66l10.8-13.32c3.12-3.85,8.78-4.44,12.62-1.32l27.89,22.6
		c3.84,3.12,4.43,8.77,1.32,12.62l-9.2,11.36c-3.12,3.85-8.78,4.44-12.62,1.32l-80.93-65.6c-5.38-4.37-13.3-3.55-17.67,1.84
		l-29.39,36.25c-4.36,5.39-3.53,13.31,1.85,17.67l36.25,29.39c5.39,4.36,13.3,3.54,17.67-1.85l20.13-24.85l-6.97-5.64l-10.8,13.32
		c-3.12,3.85-8.77,4.44-12.62,1.32l-27.89-22.6c-3.85-3.13-4.43-8.77-1.32-12.63l9.2-11.35c3.12-3.85,8.78-4.43,12.62-1.32
		L444.46,297.13z"/>
	<path class="st1" d="M128.99,249.84h5.99V209.3h-5.99V249.84z M117.57,238.11c0,4.29-2.08,6.55-6.18,6.55h-3.72v0.01h-1.89
		c-4.16,0-6.24-2.08-6.24-6.24v-17.22h-5.93v17.03c0,4.29-2.08,6.44-6.31,6.44h-4.1c-4.48,0-7.06-2.08-7.75-6.18
		c-0.57-3.73-1.7-6.5-3.53-8.2c-2.02-1.89-5.04-2.83-9.15-2.83c-7.44,0-11.67,3.66-12.74,11.04c-0.5,4.03-3.02,6.05-7.5,6.05h-8.7
		v-23.33h-5.99v26.93c0,5.3-3.1,8.57-8.2,8.57c-2.29,0-4.39-0.36-6.36-1.02v4.77c1.75,0.98,3.82,1.49,6.36,1.49
		c8.13,0,13.3-4.79,14.11-12.1h9.15c2.08,0,3.86-0.41,5.34-1.19c0,0,7.53-3.21,7.87-8.75c0.3-4.99,2.43-7.46,6.65-7.46
		c4.41,0,6.62,2.77,6.62,8.39c0,5.61-2.21,8.38-6.62,8.38c-2.75,0-4.58-1.1-5.64-3.21c-0.52,0.57-2.15,2.22-4.81,3.58
		c2.27,2.98,6.01,4.68,10.45,4.68c6.06,0,10.72-3.09,12.24-8.38c1.92,2.52,4.67,3.8,8.13,3.93v0.04h4.54c3.85,0,6.81-1.14,8.95-3.35
		c2.15,2.21,5.05,3.35,8.77,3.35h6.31c3.6,0,6.5-1.08,8.64-3.15c2.14-2.15,3.21-4.79,3.21-8.01V209.3h-5.99V238.11z M96.39,215.79
		c1.77,0,3.28-1.51,3.28-3.28c0-1.77-1.51-3.21-3.28-3.21c-1.77,0-3.28,1.45-3.28,3.21C93.11,214.28,94.62,215.79,96.39,215.79"/>
	<path class="st1" d="M219.48,237.8c-0.51-4.34-2.27-7.82-5.23-10.41c-2.97-2.65-6.62-3.97-10.97-3.97c-0.95,0-1.84,0.07-2.78,0.19
		l13.62-14.31h-7.82l-19.61,20.43l4.1,3.85c2.83-3.28,6.5-4.92,11.04-4.92c3.46,0,6.31,1.01,8.45,3.02
		c1.57,1.45,2.58,3.53,3.02,6.12c0.19,1.33,0.32,3.66,0.25,6.88h-31.9c-4.1,0-6.18-2.15-6.18-6.44V221.4h-12.8
		c-8.01,0-12.04,4.67-12.04,14c0,9.65,4.03,14.45,12.04,14.45c2.77,0,4.94-0.53,6.59-1.55c-1.74-1.94-2.55-3.52-2.88-4.46
		c-0.91,0.51-1.98,0.84-3.33,0.84c-2.46,0-4.23-0.82-5.17-2.52c-0.82-1.39-1.26-3.66-1.26-6.75c0-3.08,0.44-5.36,1.26-6.68
		c0.94-1.64,2.72-2.46,5.17-2.46h6.43v13.72c0,0,0.75,9.87,9.04,9.87h41.16C219.67,242.71,219.61,238.68,219.48,237.8
		 M160.64,215.79c1.83,0,3.35-1.51,3.35-3.28c0-1.77-1.52-3.21-3.35-3.21c-1.77,0-3.28,1.45-3.28,3.21
		C157.37,214.28,158.88,215.79,160.64,215.79 M169.16,215.79c1.77,0,3.28-1.51,3.28-3.28c0-1.77-1.51-3.21-3.28-3.21
		c-1.77,0-3.21,1.45-3.21,3.21C165.94,214.28,167.39,215.79,169.16,215.79 M296.1,221.21v17.16c0,4.1-2.08,6.17-6.18,6.17h-6.43
		v-23.33h-5.99v23.47h-12.37v-23.47h-5.99v23.33h-18.98v-23.33h-5.99v26.93c0,5.3-3.08,8.57-8.2,8.57c-2.29,0-4.38-0.36-6.35-1.02
		v4.77c1.75,0.98,3.83,1.49,6.35,1.49c8.13,0,13.31-4.79,14.13-12.1h50.12c7.26,0,11.86-4.35,11.86-10.85v-17.79H296.1z
		 M291.06,215.79c1.76,0,3.28-1.51,3.28-3.28c0-1.83-1.52-3.35-3.28-3.35c-1.77,0-3.22,1.52-3.22,3.35
		C287.84,214.28,289.29,215.79,291.06,215.79 M280.46,215.79c1.77,0,3.28-1.51,3.28-3.28c0-1.83-1.51-3.35-3.28-3.35
		c-1.83,0-3.22,1.52-3.22,3.35C277.24,214.28,278.63,215.79,280.46,215.79 M269.87,215.79c1.77,0,3.28-1.51,3.28-3.28
		c0-1.83-1.52-3.35-3.28-3.35c-1.83,0-3.22,1.52-3.22,3.35C266.65,214.28,268.04,215.79,269.87,215.79"/>
	<path class="st1" d="M35.08,291.64H22.83l-3.18,8.29H13.3l12.91-32.54h5.45l12.91,32.54h-6.29L35.08,291.64z M28.91,275.23
		c-1.14,3.41-2.15,6.24-3.05,8.53l-1.11,2.9h8.41l-1.11-2.9c-0.88-2.3-1.89-5.14-3.05-8.53H28.91z"/>
	<polygon class="st1" points="54.4,267.39 54.4,294.95 69.62,294.95 69.62,299.93 48.44,299.93 48.44,267.39 	"/>
	<path class="st1" d="M91.41,282.52c2.33,3.32,4.23,6.27,5.69,8.85h0.15c-0.19-4.23-0.29-7.3-0.29-9.24V267.4h5.96v32.54h-6.25
		l-10.59-14.98c-1.87-2.59-3.8-5.6-5.79-9.02h-0.15c0.19,4,0.29,7.08,0.29,9.26v14.74h-5.96V267.4h6.25L91.41,282.52z"/>
	<path class="st1" d="M150.15,291.2c0.72-2.57,1.6-5.31,2.65-8.24l5.61-15.57h8.37v32.54h-5.96v-16.48c0-2.42,0.09-5.23,0.29-8.42
		h-0.22c-0.28,0.92-0.61,1.95-0.97,3.11c-0.37,1.15-0.76,2.28-1.17,3.41l-6.74,18.38h-3.84l-6.74-18.38
		c-0.41-1.12-0.79-2.25-1.17-3.41s-0.7-2.18-0.97-3.11h-0.22c0.19,3,0.29,5.79,0.29,8.38v16.51h-5.96v-32.54h8.31l5.62,15.49
		c0.94,2.58,1.82,5.35,2.65,8.31H150.15z"/>
	<polygon class="st1" points="177.75,294.95 192.87,294.95 192.87,299.93 171.79,299.93 171.79,267.39 192.87,267.39 192.87,272.38 
		177.75,272.38 177.75,280.8 192.87,280.8 192.87,285.78 177.75,285.78 	"/>
	<path class="st1" d="M255.38,272.24c-1.62,0-3.12,0.26-4.49,0.77c-1.37,0.52-2.55,1.27-3.52,2.25c-0.98,0.98-1.75,2.2-2.3,3.64
		c-0.55,1.45-0.83,3.1-0.83,4.96c0,1.84,0.26,3.46,0.76,4.86c0.5,1.4,1.22,2.57,2.16,3.5c0.94,0.94,2.09,1.65,3.44,2.12
		c1.36,0.47,2.89,0.71,4.61,0.71c1.24,0,2.49-0.09,3.77-0.27c1.28-0.19,2.48-0.46,3.6-0.82v4.94c-1.14,0.31-2.36,0.56-3.68,0.74
		c-1.31,0.17-2.67,0.27-4.08,0.27c-2.75,0-5.18-0.38-7.27-1.14c-2.09-0.75-3.84-1.82-5.24-3.21c-1.4-1.39-2.46-3.03-3.16-4.97
		c-0.71-1.93-1.06-4.06-1.06-6.39c0-2.39,0.39-4.61,1.14-6.66c0.76-2.04,1.84-3.81,3.25-5.32c1.42-1.5,3.2-2.68,5.33-3.54
		c2.13-0.86,4.54-1.29,7.23-1.31c1.38,0,2.68,0.09,3.91,0.27c1.24,0.18,2.35,0.44,3.33,0.76v4.88c-1.29-0.39-2.5-0.67-3.62-0.82
		C257.54,272.33,256.44,272.24,255.38,272.24"/>
	<path class="st1" d="M295,283.66c0,2.39-0.36,4.58-1.06,6.58c-0.71,1.99-1.74,3.7-3.08,5.14c-1.35,1.44-3.02,2.55-4.99,3.35
		c-1.97,0.81-4.21,1.2-6.72,1.2c-2.51,0-4.75-0.39-6.72-1.2c-1.97-0.79-3.63-1.91-4.99-3.35c-1.35-1.44-2.38-3.15-3.08-5.14
		c-0.71-2-1.06-4.19-1.06-6.58c0-2.39,0.35-4.58,1.06-6.57c0.7-1.99,1.73-3.71,3.08-5.14c1.36-1.44,3.02-2.55,4.99-3.35
		c1.97-0.81,4.21-1.19,6.72-1.19c2.52,0,4.76,0.39,6.72,1.19c1.97,0.8,3.63,1.92,4.99,3.35c1.35,1.44,2.38,3.16,3.08,5.14
		C294.64,279.08,295,281.27,295,283.66 M288.84,283.66c0-1.91-0.24-3.58-0.72-5c-0.49-1.43-1.16-2.62-2.02-3.58
		c-0.86-0.96-1.88-1.66-3.07-2.13c-1.18-0.47-2.48-0.71-3.89-0.71c-1.4,0-2.7,0.24-3.89,0.71c-1.19,0.47-2.2,1.17-3.07,2.13
		c-0.86,0.96-1.53,2.15-2.02,3.58c-0.49,1.42-0.73,3.09-0.73,5c0,1.91,0.24,3.58,0.73,5.01c0.49,1.43,1.15,2.62,2.02,3.56
		c0.87,0.94,1.88,1.66,3.07,2.14c1.19,0.47,2.48,0.71,3.89,0.71c1.41,0,2.71-0.24,3.89-0.71c1.19-0.47,2.21-1.19,3.07-2.14
		c0.86-0.95,1.53-2.14,2.02-3.56C288.6,287.24,288.84,285.57,288.84,283.66"/>
	<path class="st1" d="M214.67,286.56v-0.1c2.63-0.76,4.57-1.93,5.82-3.51c1.25-1.59,1.89-3.51,1.89-5.77c0-2.17-0.52-3.98-1.55-5.41
		c-1.04-1.44-2.52-2.52-4.43-3.25c-1-0.37-2.21-0.65-3.61-0.84c-1.42-0.19-2.93-0.28-4.58-0.28h-9.9v32.54h5.96v-6.92v-5.67v-4.99
		v-4.83v-5.14h4.25c1.27,0,2.33,0.06,3.19,0.19c0.86,0.11,1.57,0.31,2.14,0.57c0.87,0.39,1.49,0.92,1.86,1.6
		c0.36,0.67,0.54,1.44,0.54,2.32c0,1.02-0.22,1.92-0.69,2.7c-0.47,0.79-1.3,1.41-2.5,1.86c-0.65,0.24-1.44,0.43-2.4,0.56
		c-0.67,0.08-1.48,0.12-2.36,0.15v5.01h0.04l8.85,12.6h7.15L214.67,286.56z"/>
	<polygon class="st1" points="113.85,294.95 128.97,294.95 128.97,299.93 107.9,299.93 107.9,267.39 128.97,267.39 128.97,272.38 
		113.85,272.38 113.85,280.8 128.97,280.8 128.97,285.78 113.85,285.78 	"/>
	<path class="st1" d="M298.81,299.93c1.77,0,3.28-1.51,3.28-3.28c0-1.83-1.52-3.35-3.28-3.35c-1.83,0-3.22,1.52-3.22,3.35
		C295.59,298.42,296.98,299.93,298.81,299.93"/>
</g>
</svg>
