<?xml version="1.0" encoding="utf-8"?>
<!-- Generator: Adobe Illustrator 26.2.1, SVG Export Plug-In . SVG Version: 6.00 Build 0)  -->
<svg version="1.1" id="Layer_1" xmlns="http://www.w3.org/2000/svg" xmlns:xlink="http://www.w3.org/1999/xlink" x="0px" y="0px"
	 viewBox="0 0 500 500" style="enable-background:new 0 0 500 500;" xml:space="preserve">
<style type="text/css">
	.st0{fill:#A19E9D;}
	.st1{fill:#BEA079;}
</style>
<g>
	<g>
		<path class="st0" d="M9.34,295.41c0,3.13-0.82,5.42-2.46,6.86c-1.64,1.43-3.94,2.36-6.88,2.77l1.34,3.64
			c3.36-0.34,6.16-1.61,8.42-3.84c2.25-2.22,3.39-5.36,3.39-9.43v-25.46H9.34V295.41z"/>
		<path class="st0" d="M116.18,269.05c0.74,0,1.37-0.26,1.88-0.79c0.5-0.52,0.76-1.13,0.76-1.85c0-0.71-0.25-1.31-0.76-1.82
			c-0.5-0.5-1.13-0.76-1.88-0.76c-0.71,0-1.32,0.25-1.85,0.76c-0.53,0.5-0.79,1.11-0.79,1.82c0,0.71,0.26,1.32,0.79,1.85
			C114.86,268.79,115.48,269.05,116.18,269.05"/>
		<path class="st0" d="M121.22,266.42c0,0.71,0.26,1.32,0.79,1.85c0.52,0.53,1.13,0.79,1.85,0.79c0.74,0,1.37-0.26,1.88-0.79
			c0.5-0.52,0.76-1.14,0.76-1.85c0-0.71-0.25-1.31-0.76-1.82c-0.5-0.5-1.13-0.76-1.88-0.76c-0.71,0-1.32,0.25-1.85,0.76
			C121.48,265.11,121.22,265.71,121.22,266.42"/>
		<path class="st0" d="M119.93,261.94c0.74,0,1.38-0.25,1.9-0.76c0.52-0.5,0.79-1.13,0.79-1.88c0-0.71-0.26-1.31-0.79-1.82
			c-0.52-0.51-1.16-0.76-1.9-0.76c-0.67,0-1.27,0.25-1.79,0.76c-0.52,0.5-0.79,1.11-0.79,1.82c0,0.71,0.26,1.32,0.79,1.85
			C118.66,261.68,119.26,261.94,119.93,261.94"/>
		<path class="st0" d="M142.82,268.94c0.74,0,1.37-0.26,1.88-0.79c0.5-0.52,0.76-1.13,0.76-1.85c0-0.71-0.26-1.31-0.79-1.82
			c-0.52-0.5-1.14-0.76-1.85-0.76c-0.71,0-1.32,0.25-1.85,0.76c-0.53,0.5-0.79,1.11-0.79,1.82c0,0.71,0.26,1.32,0.79,1.85
			C141.5,268.68,142.12,268.94,142.82,268.94"/>
		<path class="st0" d="M135.1,268.94c0.75,0,1.38-0.26,1.91-0.79c0.52-0.52,0.78-1.13,0.78-1.85c0-0.71-0.26-1.31-0.78-1.82
			c-0.53-0.5-1.16-0.76-1.91-0.76c-0.71,0-1.31,0.25-1.82,0.76c-0.5,0.5-0.76,1.11-0.76,1.82c0,0.71,0.25,1.32,0.76,1.85
			C133.79,268.68,134.39,268.94,135.1,268.94"/>
		<path class="st0" d="M189.89,285.51c0,1.79-0.61,3.28-1.82,4.47c-1.21,1.2-2.75,1.79-4.62,1.79c-1.83,0-3.35-0.58-4.56-1.73
			c-1.22-1.16-1.82-2.6-1.82-4.31v-10.58h-3.75v10.36c0.04,1.75-0.57,3.24-1.82,4.45c-1.25,1.21-2.81,1.82-4.67,1.82
			c-1.76,0-3.25-0.58-4.48-1.73c-1.23-1.16-1.85-2.6-1.85-4.31v-10.58h-3.75v12.88c0,1.04-0.37,1.93-1.09,2.66
			c-0.73,0.73-1.61,1.09-2.66,1.09h-4.42h-0.28h-2.35c-1.31,0-2.43-0.46-3.39-1.4c-0.95-0.93-1.46-2.05-1.54-3.36v-12.09h-3.81
			v12.09c0,1.31-0.46,2.42-1.4,3.36c-0.94,0.94-2.03,1.4-3.3,1.4h-2.69h-0.17h-2.52c-1.27,0-2.39-0.46-3.36-1.4
			c-0.97-0.93-1.49-2.05-1.56-3.36v-12.09h-3.81v12.09c0,1.31-0.46,2.42-1.37,3.36c-0.91,0.94-2.03,1.4-3.33,1.4h-2.58h-0.61h-13.1
			h-1.11H83.72H82.6H69.79h-0.89h-1.34c-1.2,0-2.24-0.44-3.11-1.31c-0.88-0.88-1.31-1.91-1.31-3.1v-5.99c0-2.13-0.54-4.09-1.62-5.88
			c-1.08-1.79-2.53-3.21-4.33-4.25c-1.81-1.05-3.78-1.57-5.91-1.57h-12.2v16.57c0,1.56-0.53,2.88-1.59,3.94
			c-1.07,1.07-2.36,1.59-3.89,1.59H32.4h-1.07h-1.51c-1.08,0-2-0.37-2.77-1.12c-0.76-0.74-1.14-1.64-1.14-2.69V256.4h-3.75v31.56
			c0,1.38,0.34,2.66,1.01,3.81c0.67,1.16,1.59,2.09,2.75,2.78c1.16,0.69,2.42,1.03,3.81,1.03h1.62h1.07h1.17
			c1.79,0,3.41-0.51,4.87-1.53c1.46-1.03,2.5-2.34,3.13-3.95c0.97,1.68,2.3,3.02,4,4c1.7,0.99,3.59,1.48,5.68,1.48
			c1.94,0,3.75-0.47,5.4-1.43c1.66-0.95,2.96-2.23,3.89-3.84c0.41,1.53,1.26,2.79,2.55,3.78c1.29,0.99,2.77,1.48,4.45,1.48h1.34
			h0.89H82.6h1.12h12.59h1.11h13.1h0.61h2.97c1.34,0,2.58-0.34,3.69-1.01c1.12-0.67,2.03-1.55,2.75-2.63
			c0.67,1.08,1.59,1.96,2.77,2.63c1.17,0.67,2.45,1.01,3.84,1.01h2.52h0.11h3.08c1.34,0,2.58-0.34,3.72-1.01
			c1.14-0.67,2.06-1.55,2.77-2.63c0.67,1.08,1.59,1.96,2.77,2.63c1.17,0.67,2.46,1.01,3.84,1.01h2.35h0.28h4.42
			c1.35,0,2.58-0.37,3.7-1.12c1.12-0.75,1.94-1.72,2.46-2.91c0.79,1.23,1.84,2.21,3.16,2.94c1.32,0.73,2.77,1.09,4.34,1.09
			c1.83,0,3.49-0.43,4.98-1.28c1.49-0.86,2.67-2.06,3.52-3.58c0.74,1.49,1.83,2.68,3.27,3.55s3.1,1.31,5.01,1.31
			c1.83,0,3.52-0.44,5.09-1.34c1.57-0.89,2.82-2.11,3.75-3.64c0.93-1.53,1.4-3.22,1.4-5.09v-15.56h-3.8V285.51z M59.32,283.6
			c0,1.49-0.35,2.87-1.06,4.11c-0.71,1.25-1.7,2.24-2.97,2.97c-1.27,0.73-2.71,1.09-4.31,1.09c-1.42,0-2.75-0.35-4-1.06
			c-1.25-0.71-2.24-1.68-2.97-2.91c-0.73-1.23-1.09-2.57-1.09-4.03v-10.3h8.06c1.53,0,2.92,0.35,4.2,1.06
			c1.27,0.71,2.28,1.67,3.02,2.88c0.75,1.22,1.12,2.57,1.12,4.06V283.6z"/>
		<path class="st0" d="M241.1,287.97c0,1.04-0.38,1.94-1.14,2.69c-0.77,0.75-1.69,1.12-2.78,1.12h-3.3h-0.28h-2.01
			c-1.31,0-2.43-0.47-3.39-1.4c-0.95-0.94-1.47-2.06-1.54-3.36v-30.39h-3.81v30.39c0,1.31-0.47,2.43-1.4,3.36
			c-0.94,0.93-2.06,1.4-3.36,1.4h-5.2v-25.69h-3.81v25.69h-8.73v3.81h18.14c1.34,0,2.58-0.34,3.72-1.01
			c1.14-0.67,2.06-1.55,2.77-2.63c0.67,1.09,1.59,1.96,2.77,2.63c1.17,0.67,2.45,1.01,3.84,1.01h2.01h0.28h3.41
			c1.38,0,2.65-0.34,3.81-1.04c1.16-0.69,2.08-1.61,2.77-2.77c0.69-1.16,1.04-2.43,1.04-3.81v-31.34h-3.81V287.97z"/>
		<path class="st0" d="M293.2,312.71c-1.09,0-2.01,0.38-2.8,1.15c-0.79,0.77-1.17,1.69-1.17,2.78c0,1.08,0.39,2.01,1.17,2.79
			c0.79,0.79,1.71,1.17,2.8,1.17c1.08,0,2.01-0.39,2.8-1.17c0.79-0.78,1.17-1.71,1.17-2.79c0-1.09-0.39-2.01-1.17-2.78
			C295.22,313.09,294.29,312.71,293.2,312.71"/>
		<path class="st0" d="M282.8,312.71c-1.08,0-2.01,0.38-2.8,1.15c-0.79,0.77-1.17,1.69-1.17,2.78c0,1.08,0.39,2.01,1.17,2.79
			c0.79,0.79,1.71,1.17,2.8,1.17c1.08,0,2.01-0.39,2.8-1.17c0.79-0.78,1.17-1.71,1.17-2.79c0-1.09-0.39-2.01-1.17-2.78
			C284.81,313.09,283.88,312.71,282.8,312.71"/>
		<path class="st0" d="M429.17,288.08c-0.43-0.49-0.64-1.14-0.64-1.96v-1.51c0-3.06-0.55-5.64-1.65-7.75
			c-1.1-2.11-2.47-3.76-4.11-4.96c-2.99-2.27-6.68-3.41-11.08-3.41c-3.39,0-6.85,0.67-10.35,2.01l2.75,6.16
			c2.87-1.01,5.48-1.51,7.83-1.51c2.76,0,5.03,0.69,6.83,2.07c2.12,1.61,3.19,4.2,3.19,7.78v1.18c0,0.56,0.14,1.07,0.42,1.53
			c0.28,0.47,0.62,0.83,1.04,1.09h-22.84h-1.17h-3.19c-0.75,0-1.34-0.24-1.77-0.73c-0.43-0.49-0.64-1.14-0.64-1.96v-1.62
			c0-3.09-0.55-5.69-1.65-7.78c-1.1-2.09-2.47-3.73-4.11-4.92c-3.06-2.35-6.77-3.52-11.14-3.52c-3.36,0-6.58,0.67-9.68,2.01
			l2.46,6.1c2.69-0.89,5.15-1.34,7.38-1.34c2.84,0,5.15,0.69,6.94,2.07c2.13,1.61,3.19,4.2,3.19,7.78v1.29
			c0,0.56,0.14,1.07,0.42,1.53c0.28,0.47,0.63,0.83,1.04,1.09h-23.11h-0.62h-17.18h-1.12h-16.68h-1.12h-17.24
			c-4.25,0-8.32-0.69-12.2-2.07c-0.23-0.08-0.95-0.37-2.18-0.89l-4.93-2.13l-2.97,6.21l8.84,3.58c1.01,0.3,1.82,0.86,2.44,1.7
			c0.61,0.85,0.92,1.79,0.92,2.83c0,1.16-0.43,2.16-1.29,3.02c-0.86,0.86-1.86,1.29-3.02,1.29h-17.07c-1.56,0-3-0.38-4.31-1.15
			c-1.31-0.77-2.34-1.81-3.1-3.13c-0.77-1.32-1.15-2.78-1.15-4.34v-10.18h-6.77v10.18c0,2.8,0.7,5.38,2.07,7.73
			c1.38,2.35,3.24,4.21,5.6,5.59c2.35,1.38,4.9,2.07,7.67,2.07h17.07c1.97,0,3.81-0.5,5.51-1.49c1.69-0.99,3.04-2.33,4.05-4.03
			c1.01-1.7,1.52-3.55,1.52-5.57c0-1.12-0.31-2.09-0.9-2.91c1.36,0.26,2.57,0.4,3.64,0.43v0.02h17.8h1.12h16.68h1.12h17.18h0.62
			h33.86h1.17h31.4v-6.77h-1.01C430.19,288.81,429.61,288.57,429.17,288.08"/>
		<path class="st0" d="M415.27,300.06c-1.08,0-2.01,0.38-2.8,1.15c-0.78,0.77-1.17,1.69-1.17,2.78c0,1.08,0.4,2.01,1.17,2.79
			c0.79,0.79,1.72,1.17,2.8,1.17c1.08,0,2.01-0.39,2.8-1.17c0.79-0.78,1.17-1.71,1.17-2.79c0-1.09-0.39-2.01-1.17-2.78
			C417.28,300.44,416.35,300.06,415.27,300.06"/>
		<rect x="439.22" y="256.4" class="st0" width="6.77" height="39.18"/>
		<path class="st0" d="M476.94,286.4c0,0.67-0.23,1.24-0.7,1.71c-0.47,0.47-1.03,0.7-1.7,0.7h-2.69h-0.22h-1.46
			c-1.27,0-2.37-0.47-3.3-1.4c-0.93-0.93-1.4-2.03-1.4-3.3v-15.55h-6.71v25.68c0,2.54-0.74,4.41-2.21,5.63
			c-1.47,1.21-3.63,2.1-6.46,2.66l2.46,6.38c3.77-0.71,6.79-2.17,9.04-4.37c2.25-2.2,3.51-5.11,3.78-8.73l0.05-1.85
			c1.42,1.08,3.01,1.62,4.76,1.62h1.46h0.22h2.75c1.64,0,3.16-0.41,4.56-1.23c1.4-0.82,2.51-1.94,3.33-3.36
			c0.82-1.42,1.23-2.95,1.23-4.59v-29.89h-6.77V286.4z"/>
		<rect x="493.23" y="256.4" class="st0" width="6.77" height="39.18"/>
		<path class="st0" d="M7.78,354.57l-2,5.36H0.15l10.49-27.4h5.56l10.8,27.4h-5.6l-2.07-5.36H7.78z M13.57,337.7l-4.11,12.33h8.26
			L13.57,337.7z"/>
		<polygon class="st0" points="52.87,359.93 34.51,359.93 34.51,332.53 39.79,332.53 39.79,355.04 52.87,355.04 		"/>
		<path class="st0" d="M66.29,359.89h-5.24v-27.36h12.41c1.62,0,3.1,0.4,4.47,1.19c1.35,0.8,2.43,1.87,3.22,3.23
			c0.8,1.35,1.2,2.83,1.2,4.42c0,2.01-0.6,3.78-1.79,5.32c-1.19,1.54-2.7,2.57-4.56,3.09l-0.83,0.12l7.13,9.9l-6.26,0.12l-6.61-9.67
			h-3.13V359.89z M75.67,344.29c0.8-0.8,1.19-1.77,1.19-2.91c0-1.13-0.4-2.09-1.21-2.88c-0.81-0.8-1.77-1.2-2.9-1.2h-6.46v8.18h6.46
			C73.9,345.49,74.87,345.09,75.67,344.29"/>
		<path class="st0" d="M95.73,354.57l-2,5.36h-5.64l10.49-27.4h5.56l10.8,27.4h-5.6l-2.07-5.36H95.73z M101.52,337.7l-4.11,12.33
			h8.26L101.52,337.7z"/>
		<path class="st0" d="M125.71,359.32c-1.46-0.8-2.65-1.86-3.56-3.21c-0.92-1.34-1.41-2.8-1.49-4.36l5.21-1.68v0.78
			c0,1.23,0.44,2.28,1.33,3.17c0.89,0.89,1.95,1.33,3.21,1.33c1.25,0,2.32-0.44,3.21-1.33c0.89-0.89,1.33-1.94,1.33-3.17v-18.32
			h5.28v18.16c0,1.77-0.44,3.42-1.32,4.93c-0.89,1.51-2.09,2.71-3.58,3.58c-1.5,0.88-3.13,1.31-4.91,1.31
			C128.73,360.52,127.17,360.12,125.71,359.32"/>
		<polygon class="st0" points="173.18,359.93 167.9,359.93 167.9,349.36 155.45,349.36 155.45,359.93 150.17,359.93 150.17,332.53 
			155.45,332.53 155.45,344.47 167.9,344.47 167.9,332.53 173.18,332.53 		"/>
		<rect x="183.6" y="332.53" class="st0" width="5.28" height="27.4"/>
		<rect x="212.95" y="332.53" class="st0" width="2.97" height="27.4"/>
		<polygon class="st0" points="250.56,359.93 247.75,359.93 230.92,337.46 230.92,359.93 227.98,359.93 227.98,332.53 
			230.76,332.53 247.63,355.04 247.63,332.53 250.56,332.53 		"/>
		<polygon class="st0" points="273.69,359.93 270.09,359.93 259.21,332.53 262.43,332.53 271.9,356.48 281.21,332.53 284.42,332.53 
					"/>
		<polygon class="st0" points="310.76,359.93 293.11,359.93 293.11,332.53 310.37,332.53 310.37,335.23 296.04,335.23 
			296.04,345.33 309.7,345.33 309.7,347.99 296.04,347.99 296.04,357.19 310.76,357.19 		"/>
		<path class="st0" d="M323.13,358.81c-1.85-1.08-3.21-2.63-4.07-4.64l2.12-1.52c1.72,3.39,4.64,5.08,8.77,5.08
			c2.19,0,3.9-0.46,5.14-1.38c1.24-0.93,1.86-2.18,1.86-3.74c0-1.2-0.42-2.18-1.27-2.94c-0.85-0.76-2.28-1.37-4.29-1.84l-3.91-0.94
			c-2.64-0.63-4.57-1.53-5.79-2.7c-1.23-1.17-1.84-2.7-1.84-4.58c0-2.3,0.85-4.14,2.57-5.51c1.71-1.38,4.06-2.08,7.06-2.08
			c2.37,0,4.43,0.47,6.16,1.39c1.74,0.93,3.01,2.21,3.82,3.85l-2.12,1.61c-0.76-1.35-1.8-2.39-3.13-3.09
			c-1.33-0.7-2.91-1.06-4.74-1.06c-2.11,0-3.75,0.43-4.89,1.27c-1.15,0.85-1.73,2.04-1.73,3.58c0,1.15,0.42,2.09,1.26,2.82
			c0.83,0.73,2.3,1.35,4.42,1.88l4.06,0.94c2.58,0.62,4.46,1.53,5.62,2.7c1.16,1.17,1.74,2.69,1.74,4.54c0,1.62-0.41,3.03-1.23,4.23
			c-0.82,1.2-2,2.13-3.52,2.78c-1.53,0.65-3.31,0.98-5.35,0.98C327.22,360.44,324.98,359.9,323.13,358.81"/>
		<polygon class="st0" points="346.53,335.31 346.53,332.53 368.49,332.53 368.49,335.31 359.05,335.31 359.05,359.93 
			356.08,359.93 356.08,335.31 		"/>
		<polygon class="st0" points="406.03,359.93 403.09,359.93 403.09,337.03 392.83,359.93 390.29,359.93 380.43,336.99 
			380.43,359.89 377.49,359.89 377.49,332.53 381.25,332.53 391.58,356.6 402.47,332.53 406.03,332.53 		"/>
		<polygon class="st0" points="435.73,359.93 418.08,359.93 418.08,332.53 435.34,332.53 435.34,335.23 421.02,335.23 
			421.02,345.33 434.67,345.33 434.67,347.99 421.02,347.99 421.02,357.19 435.73,357.19 		"/>
		<polygon class="st0" points="469.08,359.93 466.26,359.93 449.43,337.46 449.43,359.93 446.49,359.93 446.49,332.53 
			449.27,332.53 466.14,355.04 466.14,332.53 469.08,332.53 		"/>
		<polygon class="st0" points="478.04,335.31 478.04,332.53 500,332.53 500,335.31 490.56,335.31 490.56,359.93 487.59,359.93 
			487.59,335.31 		"/>
	</g>
	<g>
		
			<rect x="250" y="151.67" transform="matrix(0.7071 -0.7071 0.7071 0.7071 -49.1925 245.3433)" class="st1" width="43.11" height="60.76"/>
		<polygon class="st1" points="234.83,175.81 191.72,218.93 191.72,114.83 234.83,114.83 		"/>
		
			<rect x="237.52" y="78.22" transform="matrix(0.7071 -0.7071 0.7071 0.7071 -0.9076 215.0055)" class="st1" width="43.11" height="60.76"/>
	</g>
</g>
</svg>
