<?xml version="1.0" encoding="utf-8"?>
<!-- Generator: Adobe Illustrator 26.2.1, SVG Export Plug-In . SVG Version: 6.00 Build 0)  -->
<svg version="1.1" id="Layer_1" xmlns="http://www.w3.org/2000/svg" xmlns:xlink="http://www.w3.org/1999/xlink" x="0px" y="0px"
	 viewBox="0 0 500 500" style="enable-background:new 0 0 500 500;" xml:space="preserve">
<style type="text/css">
	.st0{fill:#BDB89A;}
</style>
<g>
	<path class="st0" d="M364.04,250.29h124.23V126.05H364.04V250.29z M438.37,180.98c-0.45,2.69-1.07,5.38-1.93,8.06
		c-6.95,21.73-25.54,36.48-46.69,39.6c-0.25,0.04-0.51-0.04-0.71-0.2l48.51-48.03C438.5,180.05,438.37,180.98,438.37,180.98
		 M414.78,195.92c-0.96,0.36-0.83-0.57-0.83-0.57c0.45-2.69,1.07-5.38,1.93-8.06c6.95-21.73,25.54-36.48,46.69-39.6
		c0.25-0.04,0.51,0.03,0.71,0.2L414.78,195.92z"/>
	<rect x="304.9" y="222.69" class="st0" width="5.35" height="55.19"/>
	<path class="st0" d="M176.74,235.15h-43.45h-13.01h-5.85c-6.38,0-12.09,2.82-16.01,7.26v-7.26h-5.35v21.36v8.91v7.11H42.23
		c0.2-1.16,0.32-2.34,0.32-3.56v-33.82H37.2v33.82c0,8.83-7.18,16.02-16.02,16.02h-8.9v5.35h8.9c8.6,0,16.02-5.12,19.4-12.46h52.49
		h5.35h78.31c11.78,0,21.37-9.59,21.37-21.37C198.11,244.73,188.52,235.15,176.74,235.15 M176.74,272.53H98.43v-7.11v-8.91
		c0-8.83,7.18-16.01,16.01-16.01h5.85h13.01h43.45c8.83,0,16.02,7.18,16.02,16.01C192.75,265.34,185.57,272.53,176.74,272.53"/>
	<rect x="217.67" y="222.69" class="st0" width="5.35" height="55.19"/>
	<path class="st0" d="M279.97,235.15h-15.72c-11.78,0-21.37,9.58-21.37,21.36c0,11.78,9.59,21.37,21.37,21.37h13.01
		c-2.88,4.28-7.76,7.11-13.3,7.11h-8.91v5.35h8.91c11.78,0,21.37-9.59,21.37-21.37v-33.82h-2.83H279.97z M264.25,272.53
		c-8.83,0-16.02-7.18-16.02-16.01c0-8.83,7.18-16.01,16.02-16.01h15.72v28.47c0,1.22-0.15,2.41-0.41,3.56H264.25z"/>
	<path class="st0" d="M45.53,364.85l-0.77-7.55h-0.33c-2.52,4.04-8.32,8.75-16.74,8.75c-10.51,0-15.42-7.44-15.42-14.44
		c0-12.14,10.72-19.47,32.05-19.25v-1.31c0-5.26-0.98-15.64-13.46-15.54c-4.59,0-9.4,1.2-13.13,3.94l-1.63-3.83
		c4.7-3.17,10.61-4.48,15.31-4.48c15.21,0,18.05,11.37,18.05,20.78v20.46c0,4.16,0.22,8.42,0.77,12.47H45.53z M44.33,336.73
		c-11.49-0.33-26.59,1.42-26.59,14c0,7.55,5.03,10.93,10.51,10.93c8.75,0,13.67-5.35,15.53-10.5c0.33-1.09,0.55-2.19,0.55-3.17
		V336.73z"/>
	<path class="st0" d="M173.51,364.85l-0.77-7.55h-0.33c-2.52,4.04-8.32,8.75-16.74,8.75c-10.51,0-15.42-7.44-15.42-14.44
		c0-12.14,10.72-19.47,32.05-19.25v-1.31c0-5.26-0.98-15.64-13.46-15.54c-4.59,0-9.4,1.2-13.12,3.94l-1.64-3.83
		c4.7-3.17,10.61-4.48,15.31-4.48c15.21,0,18.05,11.37,18.05,20.78v20.46c0,4.16,0.22,8.42,0.77,12.47H173.51z M172.31,336.73
		c-11.49-0.33-26.58,1.42-26.58,14c0,7.55,5.03,10.93,10.5,10.93c8.75,0,13.67-5.35,15.53-10.5c0.33-1.09,0.55-2.19,0.55-3.17
		V336.73z"/>
	<path class="st0" d="M192.33,357.96c2.85,1.75,7.11,3.61,11.81,3.61c8.32,0,12.25-4.48,12.25-9.95c0-5.8-3.5-8.86-11.05-11.92
		C196.7,336.4,192,331.7,192,325.36c0-7.55,5.91-14.22,16.18-14.22c4.82,0,8.86,1.43,11.6,3.28l-2.08,4.27
		c-1.75-1.31-5.15-3.17-10.39-3.17c-6.67,0-10.17,4.27-10.17,9.08c0,5.47,3.72,7.88,10.83,10.83c8.53,3.28,13.57,7.55,13.57,15.53
		c0,8.97-7,14.99-17.72,14.99c-5.15,0-9.85-1.42-13.34-3.61L192.33,357.96z"/>
	<path class="st0" d="M236.08,338.04c0,16.85,9.19,23.41,20.02,23.41c7.66,0,11.59-1.54,14.55-2.96l1.32,4.16
		c-1.97,1.09-7.33,3.28-16.52,3.28c-15.1,0-24.5-10.94-24.5-26.36c0-17.5,10.06-28.43,23.63-28.43c17.17,0,20.46,16.18,20.46,23.73
		c0,1.43,0,2.3-0.22,3.17H236.08z M269.56,333.89c0.11-7.33-2.96-18.49-15.64-18.49c-11.59,0-16.63,10.39-17.5,18.49H269.56z"/>
	<path class="st0" d="M288.37,328.09c0-5.25-0.21-10.72-0.44-15.75h4.81l0.21,10.62h0.22c2.3-6.57,7.77-11.81,14.99-11.81
		c0.66,0,1.42,0.11,2.08,0.22v5.03c-0.76-0.22-1.53-0.22-2.51-0.22c-7.22,0-12.36,6.24-13.78,14.66c-0.22,1.53-0.44,3.28-0.44,5.03
		v29h-5.14V328.09z"/>
	<path class="st0" d="M92.96,311.14v36.69c0,7.53-6.13,13.66-13.66,13.66c-7.54,0-13.66-6.13-13.66-13.66v-36.69h-4.57v36.69
		c0,10.05,8.17,18.23,18.22,18.23c10.05,0,18.22-8.18,18.22-18.23v-36.69H92.96z"/>
	<path class="st0" d="M124.85,311.14v36.69c0,7.53-6.13,13.66-13.66,13.66c-7.54,0-13.66-6.13-13.66-13.66v-36.69h-4.57v36.69
		c0,10.05,8.17,18.23,18.22,18.23c10.05,0,18.22-8.18,18.22-18.23v-36.69H124.85z"/>
</g>
</svg>
