<?xml version="1.0" encoding="utf-8"?>
<!-- Generator: Adobe Illustrator 26.2.1, SVG Export Plug-In . SVG Version: 6.00 Build 0)  -->
<svg version="1.1" id="Layer_1" xmlns="http://www.w3.org/2000/svg" xmlns:xlink="http://www.w3.org/1999/xlink" x="0px" y="0px"
	 viewBox="0 0 500 500" style="enable-background:new 0 0 500 500;" xml:space="preserve">
<style type="text/css">
	.st0{fill:#FFFFFF;}
	.st1{fill:#E20613;}
	.st2{fill:#F5A800;}
</style>
<g>
	<path class="st0" d="M449.6,169.73c-55.15,0-159.74-0.01-240.49-0.13h-0.61c-42.57,0-78.41,6.75-106.53,20.1
		c-31.77,15.08-53.06,38.33-63.24,69.1C25.9,297.49,8.43,361.11,8.26,361.75l-1.09,3.94h41.64c55.15,0,159.75,0.02,240.51,0.14h0.61
		c42.57,0,78.4-6.77,106.52-20.11c31.78-15.08,53.04-38.32,63.24-69.11c12.85-38.69,30.3-102.31,30.48-102.94l1.08-3.95H449.6z"/>
	<path class="st1" d="M213.7,180.68h-0.58c-58.84,0-138.99,13.91-161.22,80.19c-11.32,33.79-24.61,81.15-28.15,93.75h35.92
		c53.01,0,153.52,0.01,231.11,0.13h0.57c58.83,0,133.64-13.91,155.86-80.2c10.51-31.31,24.27-79.95,28.13-93.74l-30.54,0.01
		C391.8,180.82,291.29,180.8,213.7,180.68"/>
	<path class="st2" d="M289.93,365.84h-0.61c-80.75-0.12-185.36-0.14-240.51-0.14H7.17l1.09-3.95c0.17-0.64,17.63-64.26,30.47-102.95
		c10.18-30.77,31.46-54.02,63.24-69.1c28.12-13.34,63.96-20.1,106.54-20.1h0.61c80.75,0.12,185.33,0.13,240.49,0.13h41.66
		l-1.08,3.95c-0.18,0.64-17.63,64.26-30.48,102.95c-10.2,30.78-31.46,54.02-63.24,69.1C368.33,359.08,332.5,365.84,289.93,365.84
		 M48.81,359.22c55.16,0,159.77,0.02,240.51,0.15h0.6c61.23,0,139.08-14.65,162.19-84.45c10.94-32.99,25.26-84.21,29.28-98.73h-31.8
		c-55.15,0-159.74-0.01-240.5-0.14h-0.59c-61.24,0-139.07,14.65-162.2,84.45c-10.93,32.98-25.26,84.21-29.28,98.71H48.81z"/>
	<path class="st0" d="M51.98,333.37c-3.76,0-6.81,3.01-6.81,6.7c0,3.71,3.04,6.7,6.81,6.7c3.76,0,6.8-3,6.8-6.7
		C58.78,336.38,55.74,333.37,51.98,333.37 M51.98,345.59c-3.1,0-5.61-2.46-5.61-5.52c0-3.04,2.51-5.51,5.61-5.51
		c3.09,0,5.61,2.47,5.61,5.51C57.59,343.13,55.07,345.59,51.98,345.59"/>
	<path class="st0" d="M53.84,341.04c-0.2-0.21-0.46-0.39-0.75-0.57c0.61-0.08,1.06-0.3,1.36-0.62c0.31-0.33,0.46-0.75,0.46-1.26
		c0-0.4-0.09-0.76-0.29-1.07s-0.46-0.53-0.79-0.64c-0.34-0.13-0.89-0.17-1.62-0.17h-2.92v6.77h1.39v-2.83h0.28
		c0.31,0,0.55,0.03,0.7,0.08c0.14,0.04,0.27,0.14,0.4,0.27c0.13,0.14,0.38,0.48,0.74,1l1.02,1.47h1.65l-0.84-1.32
		C54.3,341.63,54.04,341.24,53.84,341.04 M51.69,339.54h-1.02v-1.72h1.08c0.56,0,0.9,0.01,1.01,0.03c0.23,0.04,0.4,0.12,0.54,0.25
		c0.12,0.15,0.17,0.34,0.17,0.56c0,0.19-0.04,0.37-0.13,0.51c-0.11,0.14-0.24,0.23-0.4,0.29C52.78,339.52,52.36,339.54,51.69,339.54
		"/>
	<path class="st0" d="M115.28,298.59c0,0.79-0.04,1.47-0.1,2.02c-0.07,0.54-0.17,0.98-0.32,1.29c-0.14,0.32-0.31,0.56-0.5,0.72
		s-0.4,0.24-0.64,0.24H96.87v13.87h15.81c0.25,0,0.46,0.07,0.64,0.2c0.18,0.14,0.35,0.36,0.5,0.68c0.14,0.32,0.25,0.74,0.32,1.28
		c0.07,0.53,0.1,1.19,0.1,1.99c0,0.8-0.04,1.47-0.1,1.99c-0.06,0.53-0.17,0.97-0.32,1.31c-0.15,0.35-0.32,0.59-0.5,0.74
		c-0.19,0.14-0.4,0.22-0.64,0.22H96.87v19.2c0,0.3-0.08,0.55-0.24,0.76c-0.17,0.21-0.45,0.39-0.86,0.53
		c-0.41,0.15-0.95,0.26-1.61,0.34c-0.66,0.08-1.52,0.12-2.55,0.12c-1.01,0-1.86-0.04-2.54-0.12c-0.67-0.08-1.21-0.19-1.61-0.34
		c-0.4-0.14-0.69-0.33-0.86-0.53c-0.17-0.21-0.26-0.46-0.26-0.76V297.6c0-1.17,0.3-2.02,0.9-2.53c0.59-0.52,1.33-0.78,2.21-0.78
		h24.27c0.24,0,0.45,0.07,0.64,0.22c0.19,0.14,0.35,0.38,0.5,0.72c0.14,0.33,0.25,0.77,0.32,1.34
		C115.24,297.12,115.28,297.8,115.28,298.59"/>
	<path class="st0" d="M158.16,326.37c0,3.03-0.4,5.79-1.2,8.29c-0.79,2.5-2.01,4.65-3.63,6.46c-1.62,1.81-3.65,3.2-6.1,4.18
		c-2.44,0.98-5.3,1.47-8.57,1.47c-3.16,0-5.91-0.44-8.24-1.31c-2.34-0.87-4.28-2.15-5.82-3.83c-1.54-1.67-2.68-3.73-3.42-6.18
		c-0.74-2.44-1.12-5.23-1.12-8.37c0-3.03,0.4-5.79,1.22-8.31c0.81-2.51,2.02-4.66,3.64-6.46c1.63-1.79,3.65-3.18,6.08-4.16
		c2.43-0.98,5.27-1.47,8.55-1.47c3.19,0,5.95,0.43,8.29,1.29c2.34,0.87,4.27,2.13,5.8,3.81c1.52,1.68,2.66,3.74,3.4,6.18
		C157.78,320.4,158.16,323.2,158.16,326.37 M147.84,326.77c0-1.76-0.14-3.37-0.42-4.84c-0.28-1.47-0.75-2.76-1.42-3.84
		c-0.66-1.09-1.55-1.94-2.65-2.56c-1.1-0.61-2.49-0.91-4.16-0.91c-1.49,0-2.79,0.27-3.9,0.82c-1.12,0.54-2.04,1.34-2.75,2.39
		c-0.72,1.05-1.26,2.31-1.61,3.79c-0.36,1.47-0.54,3.15-0.54,5.04c0,1.76,0.14,3.37,0.44,4.85c0.29,1.47,0.76,2.75,1.42,3.84
		c0.65,1.09,1.53,1.93,2.64,2.53c1.12,0.6,2.5,0.9,4.15,0.9c1.52,0,2.83-0.27,3.94-0.82c1.12-0.54,2.03-1.34,2.75-2.37
		c0.72-1.03,1.24-2.29,1.59-3.76C147.66,330.34,147.84,328.65,147.84,326.77"/>
	<path class="st0" d="M200.04,344.5c0,0.27-0.08,0.5-0.24,0.69c-0.16,0.2-0.43,0.37-0.79,0.5c-0.38,0.14-0.89,0.24-1.54,0.3
		c-0.65,0.07-1.45,0.1-2.41,0.1c-0.98,0-1.8-0.04-2.45-0.1c-0.65-0.06-1.16-0.17-1.53-0.3c-0.38-0.13-0.64-0.3-0.79-0.5
		c-0.16-0.2-0.25-0.43-0.25-0.69v-20.29c0-1.73-0.12-3.08-0.38-4.06c-0.25-0.98-0.61-1.83-1.1-2.53c-0.48-0.71-1.09-1.25-1.85-1.64
		c-0.76-0.38-1.64-0.58-2.65-0.58c-1.27,0-2.56,0.47-3.87,1.39c-1.3,0.93-2.66,2.29-4.07,4.07v23.63c0,0.27-0.08,0.5-0.24,0.69
		c-0.16,0.2-0.43,0.37-0.82,0.5c-0.38,0.14-0.9,0.24-1.53,0.3c-0.64,0.07-1.45,0.1-2.43,0.1s-1.79-0.04-2.43-0.1
		c-0.64-0.06-1.15-0.17-1.53-0.3c-0.39-0.13-0.66-0.3-0.82-0.5c-0.17-0.2-0.25-0.43-0.25-0.69v-35.54c0-0.27,0.07-0.5,0.2-0.7
		c0.13-0.19,0.37-0.36,0.72-0.5c0.35-0.13,0.79-0.23,1.34-0.3c0.54-0.07,1.23-0.1,2.05-0.1c0.85,0,1.55,0.04,2.12,0.1
		c0.56,0.07,0.98,0.17,1.29,0.3c0.3,0.14,0.52,0.3,0.66,0.5c0.13,0.2,0.2,0.43,0.2,0.7v4.1c1.97-2.12,3.97-3.72,6-4.78
		c2.03-1.06,4.15-1.6,6.35-1.6c2.42,0,4.46,0.4,6.12,1.2c1.66,0.79,3,1.88,4.02,3.24c1.03,1.37,1.76,2.97,2.21,4.8
		c0.46,1.83,0.68,4.04,0.68,6.62V344.5z"/>
	<path class="st0" d="M230.16,340.99c0,1.17-0.07,2.07-0.22,2.69c-0.14,0.63-0.34,1.06-0.58,1.31c-0.24,0.25-0.59,0.48-1.05,0.68
		c-0.47,0.2-1.01,0.38-1.64,0.52c-0.62,0.14-1.3,0.26-2.03,0.34c-0.73,0.08-1.47,0.12-2.21,0.12c-1.99,0-3.72-0.25-5.18-0.75
		c-1.46-0.51-2.67-1.29-3.63-2.33c-0.95-1.05-1.66-2.37-2.11-3.97c-0.46-1.6-0.68-3.48-0.68-5.66v-18.21h-4.26
		c-0.51,0-0.89-0.31-1.16-0.94c-0.27-0.62-0.4-1.66-0.4-3.13c0-0.77,0.03-1.42,0.09-1.95c0.07-0.53,0.17-0.95,0.3-1.26
		c0.13-0.3,0.3-0.52,0.5-0.66c0.2-0.13,0.43-0.2,0.69-0.2h4.23v-7.93c0-0.27,0.07-0.51,0.22-0.72c0.14-0.22,0.41-0.39,0.8-0.54
		c0.38-0.14,0.9-0.25,1.55-0.32c0.65-0.07,1.45-0.1,2.41-0.1c0.98,0,1.8,0.04,2.46,0.1c0.65,0.07,1.16,0.17,1.53,0.32
		c0.37,0.15,0.64,0.32,0.79,0.54c0.16,0.21,0.24,0.45,0.24,0.72v7.93h7.73c0.27,0,0.5,0.07,0.7,0.2c0.2,0.14,0.37,0.35,0.5,0.66
		c0.13,0.31,0.23,0.73,0.3,1.26c0.07,0.53,0.1,1.18,0.1,1.95c0,1.47-0.13,2.51-0.4,3.13c-0.27,0.63-0.65,0.94-1.16,0.94h-7.77v16.7
		c0,1.94,0.31,3.4,0.92,4.36c0.61,0.97,1.7,1.45,3.27,1.45c0.53,0,1-0.04,1.43-0.14c0.43-0.09,0.8-0.2,1.13-0.32
		c0.33-0.12,0.61-0.22,0.84-0.32c0.22-0.09,0.43-0.14,0.62-0.14c0.16,0,0.31,0.04,0.46,0.14c0.14,0.09,0.26,0.28,0.34,0.56
		c0.08,0.28,0.15,0.66,0.22,1.13C230.13,339.64,230.16,340.25,230.16,340.99"/>
	<path class="st0" d="M269.25,325.69c0,1.22-0.27,2.12-0.82,2.71c-0.55,0.59-1.29,0.88-2.25,0.88h-21.64c0,1.51,0.18,2.88,0.54,4.12
		c0.35,1.24,0.92,2.29,1.71,3.15c0.78,0.87,1.79,1.52,3.03,1.97c1.24,0.46,2.72,0.68,4.44,0.68c1.76,0,3.29-0.12,4.62-0.38
		c1.33-0.25,2.48-0.53,3.45-0.84c0.97-0.31,1.77-0.59,2.41-0.84c0.64-0.25,1.16-0.38,1.55-0.38c0.24,0,0.43,0.05,0.59,0.14
		c0.17,0.09,0.3,0.26,0.4,0.5c0.1,0.24,0.17,0.58,0.22,1.01c0.04,0.44,0.06,1,0.06,1.65c0,0.59-0.01,1.08-0.04,1.5
		c-0.03,0.41-0.07,0.77-0.12,1.05c-0.05,0.3-0.13,0.54-0.24,0.74c-0.11,0.2-0.25,0.4-0.42,0.58c-0.17,0.19-0.64,0.44-1.42,0.76
		c-0.77,0.32-1.75,0.64-2.95,0.94c-1.19,0.3-2.56,0.57-4.1,0.79c-1.54,0.22-3.19,0.34-4.94,0.34c-3.16,0-5.93-0.4-8.31-1.2
		c-2.38-0.79-4.36-2-5.96-3.62c-1.59-1.63-2.78-3.67-3.56-6.14c-0.79-2.47-1.18-5.37-1.18-8.68c0-3.16,0.41-6.01,1.24-8.55
		c0.82-2.54,2.02-4.69,3.58-6.46c1.57-1.77,3.47-3.11,5.72-4.05c2.25-0.93,4.78-1.39,7.59-1.39c2.98,0,5.52,0.44,7.63,1.31
		c2.11,0.87,3.84,2.09,5.2,3.65c1.35,1.55,2.35,3.4,2.98,5.52c0.64,2.12,0.96,4.44,0.96,6.94V325.69z M259.53,322.82
		c0.08-2.82-0.48-5.03-1.69-6.63c-1.21-1.61-3.08-2.41-5.6-2.41c-1.28,0-2.38,0.24-3.33,0.72c-0.95,0.48-1.73,1.13-2.35,1.94
		c-0.63,0.81-1.11,1.76-1.44,2.87c-0.33,1.1-0.53,2.28-0.58,3.53H259.53z"/>
	<path class="st0" d="M289.45,250.82H278.2h-1.35h-13.24v-32.94h-11.88v32.94h-6.03h-5.22h-13.84V236.6c0-3.06-0.34-5.82-1.03-8.28
		c-0.69-2.46-1.83-4.54-3.42-6.26c-1.59-1.7-3.72-3.03-6.39-3.96c-2.67-0.92-5.98-1.39-9.94-1.39c-2.46,0-4.77,0.09-6.93,0.27
		c-2.16,0.17-4.08,0.39-5.76,0.63l-0.06,0.01c-3.05,0.37-5.35,2.95-5.35,6.03v27.17h-6.13c-4.21,0-14.22-0.38-17.08-1.13
		c-2.85-0.74-5.16-1.89-6.9-3.42c-1.75-1.53-3-3.47-3.75-5.8c-0.75-2.34-1.13-5.1-1.13-8.28c0-2.4,0.27-4.95,0.81-7.65
		c0.54-2.7,1.29-5.1,2.25-7.2l-6.6,1.08c-3.89,0.64-6.96,3.65-7.65,7.53c0,0.02-0.01,0.05-0.01,0.07c-0.45,2.55-0.66,5.06-0.66,7.51
		c0,4.14,0.56,7.85,1.7,11.12c1.14,3.27,3.02,6.06,5.63,8.37c2.61,2.31,6.01,4.08,10.22,5.31c4.2,1.23,15.82,1.84,21.94,1.84h11.3
		c4.15,0,7.51-3.36,7.51-7.51v-26.06c0.6-0.06,1.23-0.14,1.89-0.27c0.54-0.06,1.16-0.12,1.84-0.18c0.69-0.06,1.42-0.09,2.2-0.09
		c3.72,0,6.31,0.88,7.79,2.65c1.47,1.77,2.2,4.81,2.2,9.13v16.5c0,3.21,2.61,5.82,5.82,5.82h24.76h1.35h29.79h1.35h15.62
		c4.15,0,7.51-3.36,7.51-7.51v-34.79h-11.88V250.82z"/>
	<path class="st0" d="M295.35,197.91c-3.43,0-6.21,2.78-6.21,6.21c0,3.43,2.77,6.21,6.21,6.21c3.43,0,6.21-2.78,6.21-6.21
		C301.55,200.69,298.78,197.91,295.35,197.91"/>
	<path class="st0" d="M394.34,201.08c3.43,0,6.21-2.78,6.21-6.21c0-3.43-2.77-6.21-6.21-6.21c-3.43,0-6.21,2.78-6.21,6.21
		C388.14,198.3,390.91,201.08,394.34,201.08"/>
	<path class="st0" d="M179.96,264.43c-3.43,0-6.21,2.78-6.21,6.21c0,3.43,2.77,6.21,6.21,6.21c3.43,0,6.21-2.78,6.21-6.21
		C186.16,267.21,183.39,264.43,179.96,264.43"/>
	<path class="st0" d="M165.07,264.43c-3.43,0-6.21,2.78-6.21,6.21c0,3.43,2.77,6.21,6.21,6.21c3.43,0,6.21-2.78,6.21-6.21
		C171.27,267.21,168.5,264.43,165.07,264.43"/>
	<path class="st0" d="M263.44,210.32c3.43,0,6.21-2.78,6.21-6.21c0-3.43-2.77-6.21-6.21-6.21c-3.43,0-6.21,2.78-6.21,6.21
		C257.23,207.54,260.01,210.32,263.44,210.32"/>
	<path class="st0" d="M248.55,210.32c3.43,0,6.21-2.78,6.21-6.21c0-3.43-2.77-6.21-6.21-6.21c-3.43,0-6.21,2.78-6.21,6.21
		C242.34,207.54,245.11,210.32,248.55,210.32"/>
	<path class="st0" d="M406.7,207.85l-0.03-0.01c-1.74-0.42-3.73-0.79-5.98-1.13c-2.25-0.32-4.72-0.49-7.43-0.49
		c-4.14,0-7.71,0.63-10.71,1.89c-3.01,1.26-5.48,2.92-7.43,4.99c-1.95,2.07-3.39,4.47-4.32,7.2c-0.93,2.73-1.39,5.57-1.39,8.5
		c0,3.19,0.43,6.06,1.31,8.64c0.87,2.58,2.26,4.77,4.18,6.57c1.92,1.81,4.41,3.2,7.47,4.19c2.89,0.93,6.38,1.42,10.45,1.47
		c-2.24,0.76-4.85,1.14-7.84,1.14H355.5v-30.96c-1.62-0.54-3.42-1.05-5.4-1.53c-1.74-0.42-3.73-0.79-5.99-1.13
		c-2.25-0.33-4.72-0.49-7.42-0.49c-4.14,0-7.71,0.63-10.71,1.89c-3.01,1.26-5.48,2.93-7.43,5c-1.95,2.07-3.39,4.46-4.32,7.2
		c-0.93,2.73-1.39,5.56-1.39,8.5c0,3.19,0.43,6.06,1.31,8.64c0.87,2.58,2.26,4.77,4.18,6.57c1.91,1.8,4.41,3.2,7.47,4.19
		c3.06,0.99,6.78,1.48,11.15,1.48h5.36h1.66v1.35c0,4.26-1.43,7.32-4.28,9.18c-2.85,1.86-6.61,2.8-11.29,2.8
		c-1.74,0-3.45-0.08-5.13-0.23c-1.68-0.14-3.18-0.31-4.5-0.49c-1.56-0.24-3.03-0.51-4.41-0.81l-0.41,5.53
		c-0.18,2.41,1.57,4.54,3.96,4.81c0.02,0.01,0.04,0.01,0.05,0.01c1.32,0.12,2.77,0.24,4.36,0.36c1.59,0.12,3.25,0.18,4.99,0.18
		c5.04,0,9.35-0.59,12.92-1.76c3.57-1.17,6.48-2.77,8.73-4.81c2.25-2.04,3.9-4.43,4.95-7.16c1.05-2.73,1.57-5.65,1.57-8.77v-0.18
		h28.41c5.04,0,9.34-0.59,12.91-1.76c3.57-1.17,6.48-2.77,8.73-4.81c2.25-2.04,3.9-4.43,4.95-7.15c1.05-2.73,1.58-5.66,1.58-8.78
		v-23C412.07,211.44,409.85,208.62,406.7,207.85 M342.33,250.82h-4.1c-4.75,0-8.18-1.07-10.31-3.2c-2.13-2.12-3.19-5.26-3.19-9.4
		c0-3.54,0.93-6.45,2.79-8.73c1.86-2.28,4.5-3.42,7.92-3.42c1.26,0,2.42,0.09,3.47,0.27c1.05,0.18,1.97,0.35,2.75,0.53
		c0.9,0.25,1.68,0.51,2.34,0.81v23.13H342.33z M400.55,238.85c0,0.51-0.02,1-0.07,1.48h-5.69c-4.74,0-8.18-1.07-10.3-3.19
		c-2.13-2.13-3.2-5.27-3.2-9.41c0-3.54,0.93-6.45,2.8-8.73c1.86-2.28,4.49-3.42,7.92-3.42c1.26,0,2.41,0.09,3.46,0.27
		c1.05,0.18,1.97,0.36,2.75,0.53c0.9,0.25,1.68,0.51,2.34,0.82v20.29V238.85z"/>
	<path class="st0" d="M375.31,270.76c-1.46,2.31-3.1,4.5-4.9,6.56c-1.81,2.04-3.76,3.97-5.88,5.72c-1.05,0.88-2.15,1.7-3.25,2.52
		c-1.15,0.77-2.27,1.56-3.47,2.25c-1.16,0.74-2.41,1.36-3.62,2.02c-1.26,0.59-2.49,1.23-3.79,1.73c-2.56,1.11-5.24,1.96-7.93,2.75
		c-1.39,0.32-2.74,0.69-4.13,0.97c-1.39,0.27-2.76,0.59-4.19,0.77l-2.11,0.31c-0.7,0.12-1.43,0.15-2.14,0.23l-2.13,0.21
		c-0.72,0.07-1.44,0.09-2.15,0.14l-2.15,0.12c-0.72,0.04-1.44,0.02-2.17,0.04c-1.44,0.02-2.9,0.05-4.32-0.01
		c-2.86-0.09-5.76-0.27-8.67-0.57c-2.91-0.28-5.84-0.69-8.78-1.11c-2.93-0.42-5.88-0.9-8.84-1.44c-5.9-1.05-11.84-2.19-17.79-3.4
		l-17.97-3.57c-6.03-1.15-12.09-2.25-18.19-3.27c-6.11-0.97-12.26-1.86-18.46-2.55c-6.21-0.65-12.45-1.19-18.73-1.37
		c-3.14-0.09-6.29-0.14-9.44-0.09c-3.15,0.07-6.3,0.2-9.44,0.44c-6.29,0.46-12.55,1.38-18.66,2.77c-6.1,1.43-12.06,3.35-17.64,5.9
		c-5.59,2.52-10.78,5.68-15.41,9.3c-2.15,1.68-4.17,3.49-6.05,5.38c-0.76,0.76-0.03,2.28,0.82,1.73c0.03-0.02,0.05-0.04,0.07-0.05
		c2.34-1.65,4.82-3.13,7.3-4.54c5.05-2.75,10.33-5.06,15.85-6.76c1.37-0.46,2.77-0.83,4.15-1.22c0.7-0.2,1.41-0.35,2.11-0.53
		c0.7-0.17,1.4-0.35,2.12-0.48c2.82-0.64,5.7-1.11,8.58-1.53c2.9-0.36,5.79-0.69,8.72-0.87c2.92-0.19,5.85-0.29,8.8-0.32
		c2.94-0.04,5.9,0.04,8.85,0.16c2.95,0.12,5.91,0.3,8.87,0.54c5.92,0.51,11.86,1.18,17.78,2.04c5.93,0.86,11.87,1.8,17.8,2.9
		c5.95,1.04,11.9,2.17,17.87,3.35l18.01,3.42c3.03,0.54,6.05,1.08,9.1,1.6c3.05,0.51,6.1,1.02,9.2,1.44
		c6.16,0.87,12.4,1.62,18.77,1.94c3.19,0.15,6.39,0.23,9.64,0.12c1.63-0.04,3.22-0.17,4.82-0.3c0.8-0.07,1.6-0.12,2.4-0.2l2.38-0.29
		c0.79-0.1,1.59-0.19,2.38-0.31l2.36-0.42c0.79-0.14,1.58-0.25,2.36-0.44l2.34-0.53c1.56-0.33,3.08-0.82,4.62-1.24
		c0.77-0.2,1.52-0.48,2.26-0.74l2.25-0.78c2.93-1.18,5.84-2.39,8.53-3.94c1.38-0.72,2.66-1.58,3.97-2.39l1.88-1.31
		c0.64-0.43,1.23-0.9,1.81-1.37c1.21-0.92,2.31-1.94,3.42-2.93c1.06-1.05,2.13-2.07,3.08-3.19c1.94-2.2,3.69-4.52,5.17-6.96
		c1.61-2.68,2.97-5.48,3.97-8.36c0.38-1.08-0.73-2.02-1.29-1.08C375.79,270.01,375.55,270.39,375.31,270.76"/>
</g>
</svg>
