<?xml version="1.0" encoding="utf-8"?>
<!-- Generator: Adobe Illustrator 26.2.1, SVG Export Plug-In . SVG Version: 6.00 Build 0)  -->
<svg version="1.1" id="Layer_1" xmlns="http://www.w3.org/2000/svg" xmlns:xlink="http://www.w3.org/1999/xlink" x="0px" y="0px"
	 viewBox="0 0 500 500" style="enable-background:new 0 0 500 500;" xml:space="preserve">
<style type="text/css">
	.st0{fill:#2B2523;}
</style>
<g>
	<path class="st0" d="M249.72,198.01c39.53,0,75.86,5.11,104.5,13.66c-27.3-10.52-64.06-16.96-104.5-16.96
		c-40.44,0-77.2,6.44-104.5,16.96C173.86,203.13,210.19,198.01,249.72,198.01"/>
	<path class="st0" d="M219.57,193.03c0-0.17-0.01-0.34-0.01-0.51c0-16.66,13.5-30.16,30.17-30.16c16.66,0,30.16,13.5,30.16,30.16
		c0,0.17-0.01,0.34-0.01,0.51c0.93,0.07,1.85,0.15,2.78,0.24c0.01-0.25,0.02-0.5,0.02-0.75c0-18.19-14.75-32.94-32.94-32.94
		c-18.2,0-32.95,14.75-32.95,32.94c0,0.25,0.02,0.5,0.02,0.75C217.72,193.19,218.64,193.11,219.57,193.03"/>
	<path class="st0" d="M279.67,196.11c-1.78,14.96-14.5,26.57-29.95,26.57c-15.44,0-28.17-11.61-29.94-26.57
		c-0.93,0.06-1.85,0.13-2.78,0.2c1.88,16.41,15.81,29.16,32.72,29.16c16.91,0,30.85-12.75,32.72-29.16
		C281.52,196.24,280.6,196.17,279.67,196.11"/>
	<polygon class="st0" points="12.26,254.19 12.26,273.38 36.38,273.38 36.38,254.19 39.43,254.19 39.43,297.9 36.38,297.9 
		36.38,276.04 12.26,276.04 12.26,297.9 9.21,297.9 9.21,254.19 	"/>
	<path class="st0" d="M125.96,275.59c0,15.43-9.4,23.02-19.52,23.02c-10.76,0-19.07-8.5-19.07-22.12c0-14.33,8.63-23.02,19.59-23.02
		C117.98,253.47,125.96,262.03,125.96,275.59 M90.55,276.37c0,9.86,5.71,19.65,16.08,19.65c10.38,0,16.15-9.4,16.15-20.23
		c0-9.22-5.06-19.72-16.02-19.72C95.67,256.06,90.55,266.18,90.55,276.37"/>
	<path class="st0" d="M173.9,254.77c2.65-0.58,6.42-0.9,9.4-0.9c5.71,0,9.28,1.23,11.81,3.63c1.88,1.82,3.05,4.73,3.05,7.78
		c0,5.9-3.5,9.66-8.56,11.42v0.13c3.5,1.1,5.71,4.41,6.75,9.27c1.49,6.81,2.34,10.05,3.24,11.81h-3.24
		c-0.65-1.3-1.62-5.12-2.79-10.64c-1.3-6.29-4.02-9.14-9.79-9.4h-6.81v20.04h-3.05V254.77z M176.95,275.33h6.94
		c6.75,0,11.15-3.76,11.15-9.53c0-6.68-4.93-9.41-11.8-9.41c-2.98,0-5.19,0.32-6.29,0.59V275.33z"/>
	<rect x="246.81" y="254.18" class="st0" width="3.05" height="43.71"/>
	<polygon class="st0" points="297.53,295.82 323.86,256.97 323.86,256.78 299.67,256.78 299.67,254.18 327.82,254.18 327.82,256.26 
		301.42,295.11 301.42,295.3 328.14,295.3 328.14,297.89 297.53,297.89 	"/>
	<path class="st0" d="M411.49,275.59c0,15.43-9.4,23.02-19.52,23.02c-10.76,0-19.07-8.5-19.07-22.12c0-14.33,8.63-23.02,19.59-23.02
		C403.51,253.47,411.49,262.03,411.49,275.59 M376.08,276.37c0,9.86,5.71,19.65,16.08,19.65c10.38,0,16.15-9.4,16.15-20.23
		c0-9.22-5.06-19.72-16.02-19.72C381.2,256.06,376.08,266.18,376.08,276.37"/>
	<path class="st0" d="M459.43,297.9v-43.71h2.92L479.4,280c3.5,5.45,6.04,9.53,8.18,13.75l0.13-0.06c-0.45-5.9-0.52-10.9-0.52-17.77
		v-21.73h3.05v43.71h-2.92l-16.66-25.42c-3.25-5.06-6.23-9.66-8.5-14.14l-0.13,0.06c0.32,5.39,0.39,10.12,0.39,17.39v22.11H459.43z"
		/>
</g>
</svg>
