<?xml version="1.0" encoding="utf-8"?>
<!-- Generator: Adobe Illustrator 26.2.1, SVG Export Plug-In . SVG Version: 6.00 Build 0)  -->
<svg version="1.1" id="Layer_1" xmlns="http://www.w3.org/2000/svg" xmlns:xlink="http://www.w3.org/1999/xlink" x="0px" y="0px"
	 viewBox="0 0 500 500" style="enable-background:new 0 0 500 500;" xml:space="preserve">
<style type="text/css">
	.st0{fill:#848586;}
	.st1{fill:#FFFFFF;}
</style>
<g>
	<rect class="st0" width="499.99" height="500"/>
	<path class="st1" d="M44.65,348.22h89.28v-17.84H62.5V276.8h71.43v-17.87H44.65V348.22z M44.65,455.38H62.5v-71.44h17.86v71.44
		h17.87v-71.44h17.85v71.44h17.86v-89.3H44.65V455.38z M151.78,455.38h17.87v-89.3h-17.87V455.38z M106.93,294.46H89.06v17.87h17.87
		V294.46z M258.93,455.38h17.88v-35.73h53.57v35.73h17.85v-89.3h-89.29V455.38z M276.81,383.94h53.57v17.87h-53.57V383.94z
		 M366.08,258.94v71.45h-17.86v-35.73H205.36V276.8h142.86v-17.87H187.5v53.57h142.88v17.88H169.64v-71.45h-17.86v89.28h303.58
		v-89.28H366.08z M437.51,330.38h-53.56v-53.57h53.56V330.38z M215.82,366.07l-44.64,44.65l44.64,44.66h25.25l-44.64-44.66
		l44.64-44.65H215.82z M366.08,455.38h17.88v-71.44h53.55v71.44h17.86v-89.3h-89.28V455.38z"/>
</g>
</svg>
