<?xml version="1.0" encoding="utf-8"?>
<!-- Generator: Adobe Illustrator 26.2.1, SVG Export Plug-In . SVG Version: 6.00 Build 0)  -->
<svg version="1.1" id="Layer_1" xmlns="http://www.w3.org/2000/svg" xmlns:xlink="http://www.w3.org/1999/xlink" x="0px" y="0px"
	 viewBox="0 0 500 500" style="enable-background:new 0 0 500 500;" xml:space="preserve">
<style type="text/css">
	.st0{fill:#84A9BE;}
</style>
<g>
	<path class="st0" d="M241.89,258.53c-2.5-4.25-0.6-9.04,3.65-11.51c14.38-8.33,28.89-16.85,43.16-25.34
		c4.23-2.53,9.61-1.08,12.03,3.23c0,0,40.96,70.73,71.54,137.91c2.05,4.5,8.69,4.19,12.42,0.99c31.19-26.74,54.49-62.1,65.77-105.1
		c16.43-62.61,2.17-125.89-32.24-174.88c-2.84-4.04-8.84-5.4-13.22-3.17c-17.83,9.07-52.38,26.95-78.52,41.18
		c-4.3,2.35-11.04,1.76-13.65-2.44c-29-46.79-55.67-88.21-76.93-115.19c-3.04-3.87-14.5-4.77-19.33-3.93
		c-12.67,2.23-25.04,5.63-36.99,10.12c-4.58,1.73-6.08,6.69-3.22,10.71c21.17,29.78,51.55,79.47,81.66,129.69
		c2.54,4.23,0.88,9.18-3.38,11.64c-14.38,8.33-28.88,16.84-43.15,25.34c-4.23,2.51-9.61,1.07-12.02-3.24
		c-20.51-36.5-39.17-71.07-53.51-98.94c-5.75-11.16-12.01-25.4-17.47-37.31c-2.06-4.49-6.92-5.7-10.68-2.52
		C86.06,72.6,61.09,107.81,49.68,151.31c-16.35,62.31-3.12,125.49,30.91,174.4c2.83,4.04,8.85,5.47,13.27,3.33
		c11.77-5.69,27.3-13.23,38.38-19.05c12.63-6.65,26.58-14.16,41.49-22.37c4.29-2.37,9.85-0.87,12.44,3.33
		c19.2,31.04,38.65,59.35,55.94,81.64c3.04,3.9,1.83,8.49-2.77,10.18c-34.6,9.43-96.28-8.58-106.65-13.52
		c-29.41-14.01-13.56-1.15-13.56-1.15s36.44,33.76,97.25,43.73c35.55,6.1,73.07,1.72,105.58-10.22c4.61-1.69,6.15-6.63,3.36-10.7
		C291.72,341.83,241.89,258.53,241.89,258.53 M141.02,230.72c-11.5,7.19-22.31,14.07-32.3,20.51c-4.13,2.67-9.06,1.15-11.5-3.15
		c-35.01-61.91-5.45-122.11-5.45-122.11c3.74-3.21,8.25-1.99,10.11,2.59c10.6,26.23,27.22,57.24,44.39,89.47
		C148.59,222.39,145.18,228.11,141.02,230.72 M408.48,285.86c-3.74,3.19-7.79,1.3-9.64-3.28c-10.59-26.23-26.75-58.25-43.92-90.48
		c-2.33-4.36,0.77-11.22,4.93-13.82c11.51-7.18,22.33-14.07,32.3-20.51c4.13-2.66,9.06-1.14,11.51,3.14
		C438.66,222.84,408.48,285.86,408.48,285.86"/>
	<path class="st0" d="M126.7,458.61l17.37,17.91c1.67,1.36,3.03,0.9,3.03-1.02v-17.9c0-1.93,1.93-3.5,4.29-3.5h5.59
		c2.35,0,4.28,1.57,4.28,3.5v34.97c0,1.92-1.93,3.5-4.28,3.49h-7.66c-2.35,0-5.64-1.11-7.31-2.48l-25.23-25.26
		c-1.66-1.36-2.43-1.41-2.43,0.52v23.73c0,1.92,0.35,3.5-2,3.5h-7.66c-2.35,0-4.28-1.57-4.28-3.5v-34.97c0-1.93,1.93-3.5,4.28-3.5
		h10.43C115.12,454.09,122.13,454,126.7,458.61"/>
	<path class="st0" d="M355.98,457.34v23.35c0,2.83,1.08,4.19,3.25,4.12h23.17c2.07,0.09,3.09-1.13,3.03-3.67v-23.8
		c0-2.13,1.01-3.2,3.04-3.2h7.42c2.02,0,3.26,0.92,3.69,2.75v31.59c-0.86,4.71-3.74,7.23-8.67,7.55h-8.3h-10.4h-21.66
		c-5.09-0.53-7.98-3.28-8.67-8.24v-30.44c0-2.13,0.95-3.2,2.83-3.2h8.46C355.05,454.14,355.98,455.2,355.98,457.34"/>
	<path class="st0" d="M186.12,457.34v23.35c0,2.83,1.08,4.19,3.25,4.12h23.18c2.07,0.09,3.09-1.13,3.03-3.67v-23.8
		c0-2.13,1.01-3.2,3.04-3.2h7.43c2.02,0,3.25,0.92,3.68,2.75v31.59c-0.85,4.71-3.74,7.23-8.66,7.55h-8.3h-10.4h-21.66
		c-5.09-0.53-7.98-3.28-8.67-8.24v-30.44c0-2.13,0.94-3.2,2.82-3.2h8.47C185.18,454.14,186.12,455.2,186.12,457.34"/>
	<path class="st0" d="M315.05,476.99v5.29v1.56v9.43c0.4,1.83,1.55,2.75,3.43,2.75h6.89c1.9,0,2.84-1.07,2.84-3.2v-8.98v-21.52
		c0-5.11-2.77-7.66-8.29-7.66h-5.67c-4.51,0-9.12,2.48-13.82,7.46l-12.97,13.11c-1.16,1.24-2.37,1.23-3.61-0.03l-12.4-13.07
		c-4.7-4.98-9.31-7.46-13.82-7.46h-5.67c-5.53,0-8.29,2.55-8.29,7.66v21.52v9.43c0.4,1.83,1.55,2.75,3.43,2.75h6.89
		c1.9,0,2.84-1.07,2.84-3.2v-8.98h-0.01v-1.56v-5.29v-6.84c0-1.67,0.1-2.82,0.3-3.42c0.2-0.61,0.59,0.22,1.93,1.6l22.76,23.61
		c1.03,1.04,2.32,1.57,3.88,1.57c1.54,0,2.79-0.53,3.74-1.6l0.1,0.03l23.33-23.61c1.36-1.43,1.92-1.44,2.11-0.83L315.05,476.99z"/>
</g>
</svg>
