<?xml version="1.0" encoding="utf-8"?>
<!-- Generator: Adobe Illustrator 26.2.1, SVG Export Plug-In . SVG Version: 6.00 Build 0)  -->
<svg version="1.1" id="Layer_1" xmlns="http://www.w3.org/2000/svg" xmlns:xlink="http://www.w3.org/1999/xlink" x="0px" y="0px"
	 viewBox="0 0 500 500" style="enable-background:new 0 0 500 500;" xml:space="preserve">
<style type="text/css">
	.st0{fill:#003B65;}
	.st1{fill:#009EE2;}
</style>
<g>
	<polygon class="st0" points="172.21,304.35 202.57,221.63 220.8,221.63 190.45,304.35 	"/>
	<path class="st0" d="M255.92,304.35l6.28-17.14h-35.25l24.07-65.59h-18.24l-23.22,63.27c-3.46,9.44,3.53,19.45,13.58,19.45H255.92z
		"/>
	<path class="st0" d="M352.57,291.18l25.52-69.55h-18.23l-11.91,32.47h-45.27l11.91-32.47h-18.23l-11.68,31.85
		c-3.16,8.61,3.21,17.75,12.4,17.75h44.6l-5.87,15.99h-61.35l-6.29,17.14h65.56C342.14,304.35,349.67,299.09,352.57,291.18"/>
	<path class="st0" d="M28.33,238.33l-7.77,21.18c-2.09,5.69,2.12,11.71,8.18,11.71h58.4l-5.87,15.99H10.4l-6.29,17.14h75.08
		c8.43,0,15.96-5.26,18.86-13.17l7.95-21.64c2.75-7.5-2.8-15.45-10.79-15.45H40.78l3.54-9.63c1.25-3.42,4.52-5.7,8.16-5.7h83.04
		l-24.07,65.59h18.24l24.07-65.59h30.29l6.29-17.13H52.25C41.57,221.63,32.01,228.29,28.33,238.33"/>
	<path class="st1" d="M396.31,221.62l-25.63,69.85c-2.32,6.31-7.53,11.02-13.78,12.87h8.14h17.87h54.91
		c15.09,0,28.58-9.41,33.77-23.59l21.7-59.14H396.31z"/>
</g>
</svg>
