<?xml version="1.0" encoding="utf-8"?>
<!-- Generator: Adobe Illustrator 26.2.1, SVG Export Plug-In . SVG Version: 6.00 Build 0)  -->
<svg version="1.1" id="Layer_1" xmlns="http://www.w3.org/2000/svg" xmlns:xlink="http://www.w3.org/1999/xlink" x="0px" y="0px"
	 viewBox="0 0 500 500" style="enable-background:new 0 0 500 500;" xml:space="preserve">
<style type="text/css">
	.st0{fill:#007B9E;}
</style>
<g>
	<path class="st0" d="M222.44,269.28c-23.52,23.52-23.52,61.67,0,85.2c23.52,23.52,61.67,23.52,85.2,0s23.52-61.67,0-85.2
		C284.11,245.76,245.96,245.76,222.44,269.28"/>
	<path class="st0" d="M478.03,98.89c-117.64-117.64-308.35-117.64-425.98,0l42.6,42.6c79.38-79.4,200.41-91.81,292.82-37.23
		l-44.51,44.51c-67.17-32.09-150.07-20.33-205.71,35.32c-70.57,70.57-70.57,185.01,0,255.59c35.29,35.29,81.53,52.94,127.79,52.94
		v-60.23c-30.84-0.02-61.67-11.78-85.2-35.3c-47.05-47.05-47.05-123.34,0-170.39c47.05-47.05,123.34-47.05,170.39,0l42.6-42.6
		l69.15-69.15L478.03,98.89z"/>
</g>
</svg>
