<?xml version="1.0" encoding="utf-8"?>
<!-- Generator: Adobe Illustrator 26.2.1, SVG Export Plug-In . SVG Version: 6.00 Build 0)  -->
<svg version="1.1" id="Layer_1" xmlns="http://www.w3.org/2000/svg" xmlns:xlink="http://www.w3.org/1999/xlink" x="0px" y="0px"
	 viewBox="0 0 500 500" style="enable-background:new 0 0 500 500;" xml:space="preserve">
<style type="text/css">
	.st0{fill:#A19E9D;}
</style>
<g>
	<polygon class="st0" points="228.27,146.42 212.94,146.42 212.94,123.44 197.62,123.44 197.62,146.42 197.62,161.75 197.62,184.74 
		212.94,184.74 212.94,161.75 228.27,161.75 228.27,207.72 243.6,207.72 243.6,161.75 243.6,146.42 243.6,100.45 228.27,100.45 	"/>
	<rect x="258.92" y="100.45" class="st0" width="15.33" height="45.97"/>
	<rect x="243.6" y="54.48" class="st0" width="15.33" height="45.97"/>
	<rect x="243.59" y="207.72" class="st0" width="15.33" height="45.97"/>
	<rect x="258.92" y="161.75" class="st0" width="15.33" height="45.97"/>
	<rect x="289.57" y="123.43" class="st0" width="15.33" height="61.3"/>
	<path class="st0" d="M17.84,398.15l-3.77,11.43H9.21l12.35-36.35h5.66l12.4,36.35h-5.02l-3.88-11.43H17.84z M29.76,394.48
		l-3.56-10.46c-0.81-2.37-1.34-4.53-1.89-6.64H24.2c-0.54,2.16-1.13,4.37-1.83,6.58l-3.56,10.51H29.76z"/>
	<polygon class="st0" points="44.98,373.24 49.67,373.24 49.67,405.65 65.21,405.65 65.21,409.58 44.98,409.58 	"/>
	<polygon class="st0" points="75.15,373.24 75.15,388.45 92.73,388.45 92.73,373.24 97.47,373.24 97.47,409.58 92.73,409.58 
		92.73,392.54 75.15,392.54 75.15,409.58 70.45,409.58 70.45,373.24 	"/>
	<path class="st0" d="M111.51,398.15l-3.77,11.43h-4.86l12.35-36.35h5.66l12.4,36.35h-5.02l-3.88-11.43H111.51z M123.43,394.48
		l-3.56-10.46c-0.81-2.37-1.34-4.53-1.89-6.64h-0.11c-0.54,2.16-1.13,4.37-1.83,6.58l-3.56,10.51H123.43z"/>
	<path class="st0" d="M138.65,373.72c2.86-0.43,6.26-0.75,9.98-0.75c6.75,0,11.55,1.56,14.72,4.53c3.24,2.96,5.12,7.17,5.12,13.05
		c0,5.93-1.83,10.79-5.23,14.13c-3.4,3.39-9,5.23-16.07,5.23c-3.35,0-6.15-0.16-8.52-0.43V373.72z M143.35,405.86
		c1.19,0.21,2.91,0.27,4.75,0.27c10.03,0,15.47-5.6,15.47-15.42c0.06-8.57-4.79-14.02-14.72-14.02c-2.43,0-4.26,0.21-5.5,0.49
		V405.86z"/>
	<path class="st0" d="M174.58,373.72c2.86-0.43,6.26-0.75,9.98-0.75c6.75,0,11.55,1.56,14.72,4.53c3.24,2.96,5.12,7.17,5.12,13.05
		c0,5.93-1.83,10.79-5.23,14.13c-3.4,3.39-9,5.23-16.07,5.23c-3.35,0-6.15-0.16-8.52-0.43V373.72z M179.28,405.86
		c1.19,0.21,2.91,0.27,4.75,0.27c10.03,0,15.47-5.6,15.47-15.42c0.06-8.57-4.79-14.02-14.72-14.02c-2.43,0-4.27,0.21-5.5,0.49
		V405.86z"/>
	<path class="st0" d="M215.64,398.15l-3.77,11.43h-4.86l12.35-36.35h5.66l12.4,36.35h-5.01l-3.89-11.43H215.64z M227.56,394.48
		L224,384.02c-0.81-2.37-1.34-4.53-1.89-6.64h-0.11c-0.54,2.16-1.13,4.37-1.83,6.58l-3.56,10.51H227.56z"/>
	<path class="st0" d="M242.79,373.72c2.05-0.43,5.28-0.75,8.57-0.75c4.69,0,7.71,0.8,9.98,2.64c1.89,1.4,3.02,3.56,3.02,6.42
		c0,3.5-2.32,6.58-6.15,7.98v0.1c3.45,0.86,7.5,3.72,7.5,9.11c0,3.13-1.24,5.5-3.07,7.28c-2.54,2.32-6.64,3.39-12.57,3.39
		c-3.24,0-5.71-0.21-7.28-0.43V373.72z M247.48,388.6h4.26c4.96,0,7.87-2.59,7.87-6.09c0-4.27-3.24-5.93-7.98-5.93
		c-2.16,0-3.4,0.16-4.16,0.32V388.6z M247.48,406.02c0.92,0.16,2.26,0.21,3.94,0.21c4.86,0,9.33-1.78,9.33-7.06
		c0-4.96-4.26-7.01-9.38-7.01h-3.88V406.02z"/>
	<polygon class="st0" points="288.16,373.24 288.16,388.45 305.75,388.45 305.75,373.24 310.49,373.24 310.49,409.58 305.75,409.58 
		305.75,392.54 288.16,392.54 288.16,409.58 283.47,409.58 283.47,373.24 	"/>
	<path class="st0" d="M349.71,391.03c0,12.52-7.6,19.15-16.88,19.15c-9.59,0-16.34-7.44-16.34-18.44c0-11.54,7.17-19.09,16.88-19.09
		C343.3,372.64,349.71,380.25,349.71,391.03 M321.51,391.62c0,7.76,4.2,14.72,11.6,14.72c7.44,0,11.65-6.84,11.65-15.1
		c0-7.23-3.77-14.78-11.59-14.78C325.4,376.47,321.51,383.64,321.51,391.62"/>
	<polygon class="st0" points="355.83,373.24 360.52,373.24 360.52,405.65 376.05,405.65 376.05,409.58 355.83,409.58 	"/>
	<path class="st0" d="M381.3,373.72c2.85-0.43,6.25-0.75,9.97-0.75c6.75,0,11.55,1.56,14.72,4.53c3.24,2.96,5.12,7.17,5.12,13.05
		c0,5.93-1.83,10.79-5.23,14.13c-3.4,3.39-9,5.23-16.07,5.23c-3.35,0-6.15-0.16-8.52-0.43V373.72z M385.99,405.86
		c1.19,0.21,2.91,0.27,4.75,0.27c10.03,0,15.47-5.6,15.47-15.42c0.06-8.57-4.79-14.02-14.72-14.02c-2.43,0-4.26,0.21-5.5,0.49
		V405.86z"/>
	<rect x="417.23" y="373.24" class="st0" width="4.7" height="36.35"/>
	<path class="st0" d="M430.13,409.58v-36.35h5.12l11.65,18.39c2.7,4.26,4.8,8.09,6.52,11.81l0.11-0.05
		c-0.43-4.86-0.54-9.28-0.54-14.94v-15.21h4.42v36.35h-4.75l-11.54-18.44c-2.54-4.05-4.96-8.2-6.8-12.14l-0.16,0.05
		c0.27,4.59,0.38,8.96,0.38,14.99v15.53H430.13z"/>
	<path class="st0" d="M493.3,407.96c-2.11,0.75-6.25,2-11.16,2c-5.5,0-10.03-1.41-13.59-4.8c-3.13-3.02-5.07-7.87-5.07-13.53
		c0.05-10.84,7.5-18.77,19.69-18.77c4.2,0,7.5,0.91,9.05,1.67l-1.13,3.83c-1.94-0.86-4.37-1.56-8.03-1.56
		c-8.85,0-14.61,5.5-14.61,14.61c0,9.22,5.56,14.67,14.02,14.67c3.07,0,5.18-0.43,6.26-0.97v-10.84h-7.39v-3.78h11.97V407.96z"/>
	<path class="st0" d="M138.47,331.54c0,3.22-0.35,5.46-1.05,6.72c-0.98,1.96-2.93,2.94-5.94,2.94h-3.71h-9.24v-3.22
		c0-15.74-5.59-23.71-16.79-23.71c-7.9,0-16.71,6.01-21.89,16.29c0.07-0.49,0.07-0.91,0.07-1.4v-11.47h-4.9v12.59
		c0,7.28-2.45,10.92-7.41,10.92h-4.96h-1.55H47.89v0.07h-1.61c-5.66,0-8.95-4.13-8.95-11.12v-22.45H22.5
		c-7.97,0-13.29,7-13.29,16.93c0,9.3,5.32,16.65,12.45,16.65c5.04,0,8.6-1.82,10.7-5.38c2.03,6.78,6.43,10.21,13.36,10.21h2.17h1.05
		h12.17h1.55h64.27h0.84h5.31c6.86,0,10.28-4.13,10.28-12.31v-19.45h-4.89V331.54z M32.3,323.7c-0.14,9.16-3.15,13.71-9.02,13.71
		c-5.46,0-9.17-5.94-9.17-13.08c0-7.34,3.78-13.01,9.31-13.01h8.88V323.7z M113.36,341.26H78.74c3.29-11.75,13.77-22.52,22.66-22.52
		c7.7,0,12.17,7.28,12.17,18.12C113.57,338.25,113.5,339.72,113.36,341.26"/>
	<path class="st0" d="M247.31,331.61c0,3.22-0.35,5.46-1.05,6.71c-0.98,1.96-2.94,2.94-5.94,2.94h-3.36v-0.07h-13.29h-1.47h-9.58
		c-2.59,0-4.96-0.56-7.13-1.68c3.15-1.47,5.66-3.64,7.41-6.5c1.68-2.73,2.52-5.66,2.52-8.82c0-3.99-1.26-7.34-3.77-10.07
		c-2.8-3.01-6.58-4.48-11.34-4.48c-4.68,0-8.46,1.47-11.26,4.48c-2.59,2.73-3.85,6.08-3.85,10.07c0,3.15,0.84,6.08,2.52,8.82
		c1.75,2.87,4.27,5.04,7.41,6.5c-2.17,1.12-4.55,1.68-7.14,1.68h-8.8h-2.25H165.4c-3.43,0-3.99,0-4.47-0.07
		c-1.89-0.28-3.22-0.98-3.99-2.17c-0.91-1.4-1.4-3.71-1.4-6.92v-31.19h-5.04v34.13c0,3.71,0.98,6.5,3.01,8.46
		c1.74,1.75,3.84,2.65,6.36,2.65h4.55h0.97h11.54h2.25h4.68c3.98,0,6.64-0.13,8.11-0.42c2.59-0.49,5.38-1.61,8.39-3.35
		c3.01,1.75,5.74,2.87,8.33,3.35c1.47,0.29,4.13,0.42,8.04,0.42h5.46h1.47h12.17h1.12h4.96c6.86,0,10.28-4.13,10.28-12.31v-32.94
		h-4.89V331.61z M192.96,330.77c-1.61-2.31-2.38-4.76-2.38-7.34c0-5.32,3.64-9.51,9.72-9.51c3.08,0,5.52,0.97,7.28,2.87
		c1.67,1.75,2.51,3.99,2.51,6.71c0,2.59-0.84,5.04-2.45,7.34c-1.75,2.52-4.13,4.41-7.28,5.74
		C197.22,335.25,194.7,333.35,192.96,330.77"/>
	<rect x="261.57" y="300.83" class="st0" width="4.89" height="45.26"/>
	<path class="st0" d="M331.87,331.61c0,7.7-1.96,9.58-6.92,9.58h-20.29c-9.86,0-14.83-5.04-14.83-15.45v-11.47h-4.9v11.47
		c0,13.57,6.72,20.35,20.15,20.35h21.47c6.78,0,10.21-4.13,10.21-12.31v-19.45h-4.89V331.61z"/>
	<rect x="346.14" y="300.83" class="st0" width="4.89" height="45.26"/>
	<path class="st0" d="M474.14,331.54c0,3.22-0.35,5.45-1.05,6.71c-0.98,1.96-2.94,2.94-5.94,2.94h-1.68h-7.97
		c0.13-1.54,0.21-3.08,0.21-4.68c0-6.92-1.68-12.87-4.97-17.7c-3.71-5.52-10.77-10.28-16.22-11.26v5.04
		c8.95,2.59,16.43,11.26,16.43,22.94c0,1.96-0.21,3.85-0.63,5.66h-10.28c2.17-2.52,3.29-5.74,3.29-9.65
		c0-8.19-4.9-13.57-12.38-13.57c-7.69,0-12.66,5.87-12.66,13.64c0,3.92,1.05,7.14,3.15,9.65h-10.84v-0.07h-13.49h-1.26h-9.86
		c-0.77-17.97-8.54-26.93-23.29-26.93v4.62h1.89c5.8,0.35,10.14,2.73,12.94,7.27c2.31,3.78,3.43,8.82,3.43,15.04h-25.88v4.9h40.78
		h1.26h12.38h1.12h50.09h2.79h3.29c6.86,0,10.28-4.13,10.28-12.31v-32.94h-4.89V331.54z M432.87,341.19c-4.76,0-7.48-3.85-7.48-9.3
		c0-6.22,2.73-9.86,7.76-9.86c4.55,0,7.13,3.22,7.13,9.23C440.28,337.9,437.83,341.19,432.87,341.19"/>
	<rect x="488.41" y="300.83" class="st0" width="4.89" height="45.26"/>
	<path class="st0" d="M207.81,302.33c0-1.75-1.42-3.18-3.18-3.18c-1.76,0-3.18,1.42-3.18,3.18c0,1.75,1.42,3.18,3.18,3.18
		C206.39,305.5,207.81,304.08,207.81,302.33"/>
	<path class="st0" d="M199.21,302.33c0-1.75-1.42-3.18-3.18-3.18c-1.76,0-3.18,1.42-3.18,3.18c0,1.75,1.42,3.18,3.18,3.18
		C197.79,305.5,199.21,304.08,199.21,302.33"/>
	<path class="st0" d="M133.12,353.3c0-1.75-1.42-3.18-3.18-3.18c-1.76,0-3.18,1.42-3.18,3.18c0,1.75,1.42,3.18,3.18,3.18
		C131.69,356.47,133.12,355.05,133.12,353.3"/>
	<path class="st0" d="M89.77,309.7c0-1.75-1.42-3.18-3.18-3.18c-1.76,0-3.18,1.42-3.18,3.18c0,1.75,1.42,3.18,3.18,3.18
		C88.34,312.88,89.77,311.46,89.77,309.7"/>
	<path class="st0" d="M37.33,299.61c0-1.75-1.42-3.18-3.18-3.18c-1.76,0-3.18,1.42-3.18,3.18c0,1.75,1.42,3.18,3.18,3.18
		C35.91,302.78,37.33,301.36,37.33,299.61"/>
	<path class="st0" d="M28.73,299.61c0-1.75-1.42-3.18-3.18-3.18c-1.76,0-3.18,1.42-3.18,3.18c0,1.75,1.42,3.18,3.18,3.18
		C27.31,302.78,28.73,301.36,28.73,299.61"/>
	<path class="st0" d="M315.43,353.3c0-1.75-1.42-3.18-3.18-3.18c-1.76,0-3.18,1.42-3.18,3.18c0,1.75,1.42,3.18,3.18,3.18
		C314,356.47,315.43,355.05,315.43,353.3"/>
</g>
</svg>
