<?xml version="1.0" encoding="utf-8"?>
<!-- Generator: Adobe Illustrator 26.2.1, SVG Export Plug-In . SVG Version: 6.00 Build 0)  -->
<svg version="1.1" id="Layer_1" xmlns="http://www.w3.org/2000/svg" xmlns:xlink="http://www.w3.org/1999/xlink" x="0px" y="0px"
	 viewBox="0 0 500 500" style="enable-background:new 0 0 500 500;" xml:space="preserve">
<style type="text/css">
	.st0{fill:#596871;}
	.st1{fill:#D8BA94;}
</style>
<g>
	<path class="st0" d="M43.81,294.23c0.2,0.45,0.3,0.9,0.3,1.32c0,0.39-0.08,0.65-0.23,0.81c-0.15,0.15-0.43,0.23-0.83,0.23h-1.23
		l-9.99,10.48c4.35,6.81,7.02,10.93,8.01,12.36c0.99,1.43,1.78,2.39,2.38,2.9c0.61,0.51,1.32,0.77,2.16,0.77
		c0.29,1.05,0.26,1.78-0.09,2.19c-0.35,0.41-1.28,0.62-2.77,0.62c-1.83,0-3.07-0.21-3.74-0.62c-0.67-0.41-1.36-1.34-2.08-2.79
		c-0.72-1.45-3.02-5.6-6.87-12.44l-4.09,4.87c0.01,3.75,0.07,6.47,0.16,8.17h2.47c0.19,0.45,0.28,0.9,0.28,1.32
		c0,0.38-0.08,0.65-0.23,0.8c-0.15,0.15-0.42,0.23-0.8,0.23h-9.94c-0.2-0.52-0.3-1-0.3-1.44c0-0.32,0.08-0.55,0.24-0.7
		c0.16-0.14,0.43-0.21,0.79-0.21h2.08c0.12-2.12,0.18-7.56,0.18-16.31c0-4.68-0.06-8.08-0.18-10.2h-2.81
		c-0.19-0.52-0.28-1-0.28-1.44c0-0.32,0.08-0.55,0.23-0.7c0.17-0.14,0.43-0.22,0.79-0.22h9.94c0.2,0.45,0.3,0.9,0.3,1.32
		c0,0.39-0.08,0.65-0.23,0.81c-0.15,0.15-0.43,0.23-0.82,0.23H24.9c-0.11,2.12-0.16,6.67-0.16,13.65c1.74-1.83,3.74-3.98,5.99-6.46
		c2.25-2.47,4.29-4.87,6.09-7.17h-1.99c-0.2-0.52-0.3-1.01-0.3-1.46c0-0.3,0.08-0.53,0.24-0.68c0.16-0.14,0.42-0.22,0.79-0.22
		L43.81,294.23z"/>
	<path class="st0" d="M93.84,294.09c0.23,0.13,1.77,4.39,4.62,12.78c2.85,8.39,4.78,13.8,5.78,16.22h2.01
		c0.19,0.45,0.28,0.9,0.28,1.32c0,0.38-0.08,0.65-0.23,0.8c-0.15,0.16-0.42,0.23-0.8,0.23h-9.49c-0.2-0.52-0.3-1-0.3-1.44
		c0-0.32,0.08-0.56,0.24-0.7c0.17-0.14,0.43-0.21,0.79-0.21h1.23c-0.29-1.36-1.02-3.96-2.19-7.82H85.48
		c-1.07,3.82-1.71,6.44-1.92,7.82h2.13c0.18,0.45,0.28,0.9,0.28,1.32c0,0.38-0.08,0.65-0.23,0.8c-0.15,0.16-0.41,0.23-0.8,0.23
		h-8.41c-0.18-0.52-0.28-1-0.28-1.44c0-0.32,0.08-0.56,0.24-0.7c0.16-0.14,0.43-0.21,0.79-0.21h1.32c1.01-2.78,2.67-7.79,5.01-15.04
		c2.33-7.25,3.77-11.42,4.32-12.52c0.55-1.1,1.54-1.64,3-1.64C92.64,293.89,93.62,293.95,93.84,294.09 M94.9,312.32
		c-2.78-8.83-4.27-13.24-4.47-13.24c-0.2,0-1.59,4.41-4.15,13.24H94.9z"/>
	<path class="st0" d="M160.53,294.23c0.87,0,1.46,0.12,1.78,0.37c0.32,0.25,0.48,0.73,0.48,1.47c0,0.92-0.28,1.89-0.87,2.88
		c-2.88-1.18-6.84-1.76-11.89-1.76h-1.99c-0.1,1.72-0.16,5.38-0.16,10.96h11.3c0.2,0.59,0.3,1.22,0.3,1.87
		c0,0.43-0.08,0.71-0.23,0.85c-0.15,0.14-0.45,0.21-0.89,0.21h-10.48c0.01,6.25,0.07,10.26,0.16,12.01h3.69
		c0.18,0.45,0.27,0.9,0.27,1.32c0,0.38-0.08,0.65-0.23,0.8c-0.15,0.15-0.42,0.23-0.8,0.23h-10.74c-0.2-0.52-0.3-1-0.3-1.44
		c0-0.32,0.08-0.55,0.24-0.7c0.16-0.14,0.43-0.21,0.79-0.21h1.69c0.11-2.12,0.16-7.56,0.16-16.31c0-4.68-0.05-8.08-0.16-10.2h-2.42
		c-0.2-0.52-0.3-1-0.3-1.44c0-0.32,0.08-0.55,0.24-0.7c0.16-0.14,0.43-0.22,0.79-0.22H160.53z"/>
	<path class="st0" d="M211.92,294.09c0.23,0.13,1.77,4.39,4.62,12.78c2.85,8.39,4.78,13.8,5.78,16.22h2.01
		c0.19,0.45,0.28,0.9,0.28,1.32c0,0.38-0.08,0.65-0.23,0.8c-0.15,0.16-0.42,0.23-0.8,0.23h-9.49c-0.2-0.52-0.3-1-0.3-1.44
		c0-0.32,0.08-0.56,0.24-0.7c0.17-0.14,0.43-0.21,0.79-0.21h1.23c-0.29-1.36-1.02-3.96-2.19-7.82h-10.32
		c-1.07,3.82-1.71,6.44-1.92,7.82h2.13c0.18,0.45,0.28,0.9,0.28,1.32c0,0.38-0.08,0.65-0.23,0.8c-0.15,0.16-0.41,0.23-0.8,0.23
		h-8.41c-0.18-0.52-0.28-1-0.28-1.44c0-0.32,0.08-0.56,0.24-0.7c0.16-0.14,0.43-0.21,0.79-0.21h1.32c1.01-2.78,2.67-7.79,5.01-15.04
		c2.33-7.25,3.77-11.42,4.32-12.52c0.55-1.1,1.54-1.64,3-1.64C210.72,293.89,211.69,293.95,211.92,294.09 M212.97,312.32
		c-2.78-8.83-4.27-13.24-4.47-13.24c-0.2,0-1.59,4.41-4.15,13.24H212.97z"/>
	<path class="st0" d="M273.67,294.09c0.23,0.13,1.77,4.39,4.62,12.78c2.85,8.39,4.78,13.8,5.78,16.22h2.01
		c0.19,0.45,0.28,0.9,0.28,1.32c0,0.38-0.08,0.65-0.23,0.8c-0.15,0.16-0.42,0.23-0.8,0.23h-9.49c-0.2-0.52-0.3-1-0.3-1.44
		c0-0.32,0.08-0.56,0.24-0.7c0.17-0.14,0.43-0.21,0.79-0.21h1.23c-0.29-1.36-1.02-3.96-2.19-7.82H265.3
		c-1.07,3.82-1.71,6.44-1.92,7.82h2.13c0.18,0.45,0.28,0.9,0.28,1.32c0,0.38-0.08,0.65-0.23,0.8c-0.15,0.16-0.41,0.23-0.8,0.23
		h-8.41c-0.18-0.52-0.28-1-0.28-1.44c0-0.32,0.08-0.56,0.24-0.7c0.16-0.14,0.43-0.21,0.79-0.21h1.32c1.01-2.78,2.67-7.79,5.01-15.04
		c2.33-7.25,3.77-11.42,4.32-12.52c0.55-1.1,1.54-1.64,3-1.64C272.47,293.89,273.44,293.95,273.67,294.09 M274.72,312.32
		c-2.78-8.83-4.27-13.24-4.47-13.24c-0.2,0-1.59,4.41-4.15,13.24H274.72z"/>
	<path class="st0" d="M330.41,294.23c0.18,0.45,0.28,0.9,0.28,1.32c0,0.39-0.08,0.65-0.23,0.81c-0.16,0.15-0.42,0.23-0.81,0.23
		h-1.62c-0.11,2.12-0.16,5.74-0.16,10.86h13.56c-0.01-5.12-0.08-8.75-0.18-10.86h-2.36c-0.2-0.52-0.3-1-0.3-1.44
		c0-0.32,0.08-0.55,0.24-0.7c0.16-0.14,0.42-0.22,0.79-0.22h9.63c0.19,0.45,0.28,0.9,0.28,1.32c0,0.39-0.08,0.65-0.23,0.81
		c-0.15,0.15-0.42,0.23-0.81,0.23h-1.85c-0.11,2.12-0.16,5.61-0.16,10.48c0,8.57,0.06,13.91,0.18,16.03h2.58
		c0.19,0.45,0.28,0.9,0.28,1.32c0,0.38-0.08,0.65-0.23,0.8c-0.15,0.15-0.42,0.23-0.81,0.23h-9.6c-0.2-0.52-0.3-1-0.3-1.44
		c0-0.32,0.08-0.55,0.24-0.7c0.16-0.14,0.42-0.21,0.79-0.21h1.63c0.1-1.8,0.17-6.03,0.18-12.69h-13.56
		c0.01,6.64,0.08,10.88,0.18,12.69h2.36c0.18,0.45,0.28,0.9,0.28,1.32c0,0.38-0.08,0.65-0.23,0.8c-0.16,0.15-0.42,0.23-0.81,0.23
		h-9.6c-0.2-0.52-0.3-1-0.3-1.44c0-0.32,0.08-0.55,0.24-0.7c0.16-0.14,0.42-0.21,0.79-0.21h1.85c0.12-2.12,0.18-7.56,0.18-16.31
		c-0.01-4.68-0.08-8.08-0.18-10.2h-2.58c-0.2-0.52-0.3-1-0.3-1.44c0-0.32,0.08-0.55,0.24-0.7c0.16-0.14,0.42-0.22,0.79-0.22H330.41z
		"/>
	<path class="st0" d="M34.87,218.75c-11.5,0-18.5,7.88-18.5,20.58c0,5.47,1.65,10.18,4.93,14.12c3.61,4.27,8.43,6.46,14.34,6.46
		c11.5,0,18.39-7.77,18.39-20.58c0-5.36-1.64-10.08-4.82-14.01C45.6,220.94,40.78,218.75,34.87,218.75 M35.85,254.44
		c-2.96,0-5.47-1.21-7.66-3.72c-2.3-2.85-3.5-6.57-3.5-11.28c0-4.82,1.09-8.54,3.17-11.27c1.86-2.52,4.38-3.72,7.45-3.72
		c2.95,0,5.47,1.2,7.55,3.72c2.41,2.74,3.61,6.57,3.61,11.27C46.47,248.97,41.88,254.44,35.85,254.44"/>
	<path class="st0" d="M80.06,243.38c0-6.79,2.3-10.18,6.9-10.18c2.52,0,4.81,1.2,6.78,3.72l3.18-4.82
		c-2.63-3.5-6.02-5.26-10.18-5.26c-4.16,0-7.66,1.54-10.4,4.6c-2.74,2.96-4.05,6.69-4.05,11.06c0,4.05,1.21,7.55,3.72,10.51H65.82
		l-3.83,6.9h35.47v-6.9h-7.99C82.9,253.02,80.06,250.39,80.06,243.38"/>
	<path class="st0" d="M342.96,232.22c-5.15-8.21-13.03-12.26-23.54-12.26h-99.58c-2.41,0-4.92,0.22-7.54,0.65l27.44-26.89
		l-5.04-4.93l-34.56,35.65c-0.21,0.11-0.43,0.11-0.54,0.22l3.5,6.35c5.04-2.96,10.08-4.49,15.11-4.49h99.57
		c6.57,0,12.04,2.41,16.53,7.33c4.49,4.82,7,11.16,7.33,19.05H166.67c6.63-2.85,10.42-9.56,10.42-19.05
		c0-5.36-1.64-10.07-4.82-14.01c-3.61-4.38-8.43-6.57-14.33-6.57c-11.5,0-18.5,7.88-18.5,20.58c0,5.47,1.64,10.18,4.93,14.12
		c1.87,2.21,4.06,3.85,6.56,4.93h-8.46h-9.53h-1.97h-6.24c-3.39-0.54-5.15-2.85-5.15-6.9l-0.32-56.93h-7.55l0.32,57.91
		c0,4.16,1.32,7.45,3.73,9.75c2.07,2.08,4.71,3.18,7.77,3.18h7.45h1.97h9.53h207.06C349.53,248.31,347.34,239.12,342.96,232.22
		 M150.93,222.69c1.86-2.52,4.38-3.72,7.44-3.72c2.96,0,5.47,1.21,7.55,3.72c2.41,2.74,3.61,6.57,3.61,11.28c0,9.52-4.6,15-10.61,15
		c-2.96,0-5.48-1.2-7.66-3.72c-2.3-2.85-3.51-6.57-3.51-11.27C147.75,229.15,148.85,225.43,150.93,222.69"/>
	<path class="st0" d="M158.26,204.98c2.98,0,5.38-2.41,5.38-5.38c0-2.98-2.41-5.39-5.38-5.39c-2.98,0-5.38,2.41-5.38,5.39
		C152.88,202.57,155.29,204.98,158.26,204.98"/>
	<path class="st0" d="M28.46,204.98c2.98,0,5.38-2.41,5.38-5.38c0-2.98-2.41-5.39-5.38-5.39c-2.98,0-5.38,2.41-5.38,5.39
		C23.08,202.57,25.48,204.98,28.46,204.98"/>
	<path class="st0" d="M41.93,204.98c2.98,0,5.38-2.41,5.38-5.38c0-2.98-2.41-5.39-5.38-5.39c-2.98,0-5.38,2.41-5.38,5.39
		C36.54,202.57,38.95,204.98,41.93,204.98"/>
	<path class="st1" d="M488.15,319.58c-8.1,4.22-15.49,6.33-22.15,6.33c-6.66,0-12.65-0.94-17.99-2.83
		c-13.21-4.77-26.7-15.71-40.47-32.81l-31.86-39.85l39.47-52.3c0.89-1.11,1.33-2.11,1.33-3c0-0.89-0.17-1.67-0.5-2.33
		c-0.89-1.67-2.45-2.5-4.67-2.5h-1.66v-1.5h38.13v1.5h-0.66c-7.44,0-13.49,2.67-18.15,7.99l-32.47,38.64l33.36,42.18
		c10.1,13.32,19.59,22.98,28.48,28.98c8.88,6,18.77,9.27,29.65,9.82L488.15,319.58z"/>
</g>
</svg>
