<?xml version="1.0" encoding="utf-8"?>
<!-- Generator: Adobe Illustrator 26.2.1, SVG Export Plug-In . SVG Version: 6.00 Build 0)  -->
<svg version="1.1" id="Layer_1" xmlns="http://www.w3.org/2000/svg" xmlns:xlink="http://www.w3.org/1999/xlink" x="0px" y="0px"
	 viewBox="0 0 500 500" style="enable-background:new 0 0 500 500;" xml:space="preserve">
<style type="text/css">
	.st0{fill:#B2B3B5;}
</style>
<g>
	<path class="st0" d="M444.79,232.11c0,20.08-15.74,37.05-35.81,37.59c-20.82,0.57-37.88-16.14-37.88-36.83v-36.84v-36.85h-36.85
		h-83.57h-32.03h-40.57v36.85h40.57h32.36c20.07,0,37.05,15.74,37.59,35.8c0.57,20.83-16.14,37.88-36.83,37.88h-73.7v36.84h73.7
		c41.03,0,74.22-33.52,73.68-74.67c-0.17-13.1-3.86-25.31-10.08-35.86h18.87v36.84c0,41.03,33.53,74.22,74.68,73.69
		c40.5-0.53,72.71-34.29,72.71-74.79v-72.59h-36.84V232.11z"/>
	<rect x="12.28" y="103.92" class="st0" width="147.38" height="36.84"/>
	<rect x="444.78" y="103.92" class="st0" width="36.84" height="36.84"/>
	<rect x="178.09" y="103.92" class="st0" width="36.84" height="36.84"/>
	<rect x="311.43" y="296.93" class="st0" width="36.84" height="36.84"/>
	<path class="st0" d="M49.13,159.18H12.28v36.85v36.84c0,41.03,33.53,74.22,74.68,73.69c40.5-0.53,72.71-34.29,72.71-74.79v-35.74
		v-36.85h-36.84H49.13z M122.82,232.11c0,20.08-15.74,37.05-35.81,37.59c-20.82,0.57-37.88-16.14-37.88-36.83v-36.84h73.69V232.11z"
		/>
	<path class="st0" d="M153.3,381.31c0,18.87-11.61,30.31-28.67,30.31c-17.33,0-27.47-12.89-27.47-29.28
		c0-17.25,11.18-30.14,28.42-30.14C143.5,352.2,153.3,365.43,153.3,381.31 M111.1,382.08c0,11.27,5.37,19.21,14.2,19.21
		c8.93,0,14.04-8.36,14.04-19.55c0-10.33-5.03-19.21-14.12-19.21C116.3,362.53,111.1,370.89,111.1,382.08"/>
	<polygon class="st0" points="281.12,363.28 265.44,363.28 265.44,352.19 310.32,352.19 310.32,363.28 294.37,363.28 294.37,411.62 
		281.12,411.62 	"/>
	<polygon class="st0" points="358.38,352.2 358.38,375.03 380.12,375.03 380.12,352.2 393.29,352.2 393.29,411.62 380.12,411.62 
		380.12,386.75 358.38,386.75 358.38,411.62 345.12,411.62 345.12,352.2 	"/>
	<polygon class="st0" points="454.43,362.25 454.25,362.25 442.04,411.62 428.35,411.62 446.2,352.2 463.53,352.2 481.63,411.62 
		467.43,411.62 	"/>
	<path class="st0" d="M221.45,379.57v-0.17c6.58-2.43,9.62-7.28,9.62-12.48c0-5.29-2.95-9.27-7.02-11.43
		c-4.24-2.51-9.18-3.29-17.24-3.29h-3.98h-13.08v59.42h5.85h7.23h1.61c11.37-0.04,18.37-1.94,22.56-5.28
		c3.64-2.94,6.06-7.1,6.06-12.39C233.06,386.41,228.12,381.39,221.45,379.57 M208.46,361.82c5.97,0,9.35,2.34,9.35,6.76
		c0,4.32-3.72,7.18-10.65,7.18h-4.33v-13.91C205.41,361.82,207.75,361.82,208.46,361.82 M207.94,401.84c-1.41,0-2.53-0.01-3.5-0.04
		h-1.61v-16.59h4.5c6.59,0,11.87,2.34,11.87,8.22C219.2,399.59,213.92,401.84,207.94,401.84"/>
	<polygon class="st0" points="24.4,368.21 46.76,411.62 60.62,411.62 60.62,352.19 48.49,352.19 48.49,392.65 27.7,352.19 
		12.28,352.19 12.28,411.62 24.41,411.62 	"/>
</g>
</svg>
