<?xml version="1.0" encoding="utf-8"?>
<!-- Generator: Adobe Illustrator 26.2.1, SVG Export Plug-In . SVG Version: 6.00 Build 0)  -->
<svg version="1.1" id="Layer_1" xmlns="http://www.w3.org/2000/svg" xmlns:xlink="http://www.w3.org/1999/xlink" x="0px" y="0px"
	 viewBox="0 0 500 500" style="enable-background:new 0 0 500 500;" xml:space="preserve">
<style type="text/css">
	.st0{fill:#CCA570;}
	.st1{fill:#357369;}
</style>
<g>
	<path class="st0" d="M329.93,88.5h-6.77v5.23h0.45c6.15,0,11.14,4.99,11.14,11.14v9.07v117.02v9.08c0,6.15-4.99,11.14-11.14,11.14
		h-0.45v5.23h6.77c10.1,0,18.3-8.19,18.3-18.3v-7.15V113.94v-7.15C348.23,96.69,340.04,88.5,329.93,88.5"/>
	<path class="st0" d="M178.74,251.18h-0.45c-6.15,0-11.14-4.99-11.14-11.14v-9.07V113.94v-9.07c0-6.15,4.99-11.14,11.14-11.14h0.45
		V88.5h-6.77c-10.1,0-18.3,8.19-18.3,18.3v7.14v117.02v7.15c0,10.1,8.19,18.3,18.3,18.3h6.77V251.18z"/>
	<path class="st0" d="M214.65,280.49h-0.45c-6.15,0-11.14-4.99-11.14-11.14v-9.07V84.62v-9.07c0-6.15,4.99-11.14,11.14-11.14h0.45
		v-5.23h-6.77c-10.1,0-18.3,8.19-18.3,18.3v7.15v175.65v7.15c0,10.1,8.19,18.3,18.3,18.3h6.77V280.49z"/>
	<path class="st0" d="M294.01,59.18h-6.77v5.23h0.45c6.15,0,11.14,4.99,11.14,11.14v9.07v175.65v9.07c0,6.15-4.99,11.14-11.14,11.14
		h-0.45v5.23h6.77c10.1,0,18.3-8.19,18.3-18.31v-7.14V84.62v-7.15C312.31,67.37,304.12,59.18,294.01,59.18"/>
	<path class="st0" d="M258.09,32.57h-14.28c-10.1,0-18.3,8.19-18.3,18.3v7.15v228.87v7.14c0,10.11,8.19,18.3,18.3,18.3h14.28
		c10.1,0,18.3-8.19,18.3-18.3v-7.14V58.02v-7.15C276.39,40.77,268.2,32.57,258.09,32.57 M262.92,295.96
		c0,6.15-4.99,11.14-11.14,11.14h-1.66c-6.15,0-11.14-4.99-11.14-11.14v-9.07V58.02v-9.08c0-6.15,4.99-11.14,11.14-11.14h1.66
		c6.15,0,11.14,4.99,11.14,11.14v9.08v228.87V295.96z"/>
	<rect x="247.22" y="293.07" class="st0" width="7.48" height="31.8"/>
	<path class="st1" d="M296.8,393.48H267c-3.28,0-5.96-2.67-5.96-5.96v-11.44c0-3.28,2.68-5.96,5.96-5.96h29.8
		c3.28,0,5.96,2.67,5.96,5.96v11.44C302.76,390.81,300.09,393.48,296.8,393.48 M267,375.54c-0.29,0-0.54,0.25-0.54,0.54v11.44
		c0,0.29,0.25,0.55,0.54,0.55h29.8c0.29,0,0.54-0.25,0.54-0.55v-11.44c0-0.29-0.25-0.54-0.54-0.54H267z"/>
	<path class="st1" d="M387.62,393.48h-33.57v-5.42h33.57c0.29,0,0.54-0.25,0.54-0.55v-11.44c0-0.29-0.25-0.54-0.54-0.54h-33.57
		v-5.42h33.57c3.28,0,5.96,2.67,5.96,5.96v11.44C393.59,390.81,390.91,393.48,387.62,393.48"/>
	<path class="st1" d="M340.34,393.48h-29.8v-5.42h29.8c0.29,0,0.54-0.25,0.54-0.55v-17.31h5.42v17.31
		C346.31,390.81,343.63,393.48,340.34,393.48"/>
	<path class="st1" d="M488.15,393.48h-29.8c-3.28,0-5.96-2.67-5.96-5.96v-11.44c0-3.28,2.68-5.96,5.96-5.96h29.8
		c3.28,0,5.96,2.67,5.96,5.96v11.44C494.11,390.81,491.43,393.48,488.15,393.48 M458.35,375.54c-0.29,0-0.54,0.25-0.54,0.54v11.44
		c0,0.29,0.25,0.55,0.54,0.55h29.8c0.29,0,0.54-0.25,0.54-0.55v-11.44c0-0.29-0.25-0.54-0.54-0.54H458.35z"/>
	<path class="st1" d="M400.98,388.06h-3.01h-5.94c0.28,3.04,2.83,5.42,5.94,5.42h64.27v-5.42H400.98z"/>
	<rect x="271.35" y="359.28" class="st1" width="8.62" height="5.42"/>
	<rect x="283.83" y="359.28" class="st1" width="8.62" height="5.42"/>
	<rect x="462.7" y="359.28" class="st1" width="8.62" height="5.42"/>
	<rect x="475.17" y="359.28" class="st1" width="8.62" height="5.42"/>
	<path class="st1" d="M43.56,393.48h-29.8c-3.28,0-5.96-2.67-5.96-5.96v-11.44c0-3.28,2.68-5.96,5.96-5.96h29.8
		c3.28,0,5.96,2.67,5.96,5.96v11.44C49.51,390.81,46.84,393.48,43.56,393.48 M13.76,375.54c-0.29,0-0.54,0.25-0.54,0.54v11.44
		c0,0.29,0.25,0.55,0.54,0.55h29.8c0.29,0,0.54-0.25,0.54-0.55v-11.44c0-0.29-0.25-0.54-0.54-0.54H13.76z"/>
	<path class="st1" d="M165.55,393.48h-19.05c-3.28,0-5.96-2.67-5.96-5.96v-11.44c0-3.28,2.68-5.96,5.96-5.96h19.05
		c3.28,0,5.96,2.67,5.96,5.96v11.44C171.5,390.81,168.83,393.48,165.55,393.48 M146.49,375.54c-0.29,0-0.54,0.25-0.54,0.54v11.44
		c0,0.29,0.25,0.55,0.54,0.55h19.05c0.29,0,0.54-0.25,0.54-0.55v-11.44c0-0.29-0.25-0.54-0.54-0.54H146.49z"/>
	<path class="st1" d="M189.28,393.48h20.54v-5.42h-20.54c-0.29,0-0.54-0.25-0.54-0.55v-11.44c0-0.29,0.25-0.54,0.54-0.54h20.54
		v-5.42h-20.54c-3.28,0-5.96,2.67-5.96,5.96v11.44C183.31,390.81,185.99,393.48,189.28,393.48"/>
	<rect x="18.11" y="359.28" class="st1" width="8.62" height="5.42"/>
	<rect x="30.58" y="359.28" class="st1" width="8.62" height="5.42"/>
	<rect x="49.53" y="398.91" class="st1" width="8.62" height="5.42"/>
	<rect x="62.02" y="398.91" class="st1" width="8.62" height="5.42"/>
	<path class="st1" d="M221.73,393.48h-99.12v-5.42h99.12c0.29,0,0.54-0.25,0.54-0.55v-28.24h5.42v28.24
		C227.7,390.81,225.02,393.48,221.73,393.48"/>
	<rect x="235.44" y="359.27" class="st1" width="5.42" height="34.21"/>
	<rect x="121.96" y="359.27" class="st1" width="5.42" height="34.21"/>
	<path class="st1" d="M108.21,393.48h-29.8v-5.42h29.8c0.29,0,0.54-0.25,0.54-0.55v-17.31h5.42v17.31
		C114.18,390.81,111.5,393.48,108.21,393.48"/>
	<path class="st1" d="M64.69,393.48h-29.8v-5.42h29.8c0.29,0,0.54-0.25,0.54-0.55v-17.31h5.42v17.31
		C70.66,390.81,67.97,393.48,64.69,393.48"/>
	<rect x="145.47" y="359.28" class="st1" width="8.62" height="5.42"/>
	<rect x="157.95" y="359.28" class="st1" width="8.62" height="5.42"/>
	<path class="st1" d="M101.17,446.24v2.67h-0.94c-2.11,0-3.85-0.82-4.52-3.24c-0.9,0.33-2,0.48-3.2,0.48
		c-4.86,0-7.53-2.59-7.53-7.34v-12.43c0-4.75,2.67-7.34,7.53-7.34c4.86,0,7.53,2.59,7.53,7.34v12.43c0,2.6-0.79,4.56-2.34,5.8
		c0.49,1.25,1.36,1.63,2.79,1.63H101.17z M92.51,443.49c2.9,0,4.52-1.51,4.52-4.48V426.2c0-2.97-1.62-4.48-4.52-4.48
		c-2.9,0-4.48,1.51-4.48,4.48v12.81C88.03,441.98,89.61,443.49,92.51,443.49"/>
	<path class="st1" d="M106.34,438.82v-19.4h3.05v19.59c0,3.01,1.54,4.48,4.44,4.48c2.82,0,4.41-1.47,4.41-4.48v-19.59h2.93v19.4
		c0,4.67-2.59,7.34-7.42,7.34C108.9,446.16,106.34,443.45,106.34,438.82"/>
	<path class="st1" d="M127.85,419.42h7.42c5,0,7.46,2.37,7.46,7.23v11.9c0,4.86-2.45,7.23-7.46,7.23h-7.42V419.42z M135.2,443.11
		c3.16,0,4.48-1.32,4.48-4.48v-12.06c0-3.16-1.32-4.48-4.48-4.48h-4.29v21.02H135.2z"/>
	<path class="st1" d="M149.18,419.42h7.11c5.05,0,7.46,2.11,7.46,6.52v0.67c0,3.35-1.25,5.23-4.11,5.99v0.04
		c2.86,0.6,4.11,2.49,4.11,6.22v3.32c0,1.28,0.07,2.6,0.48,3.62h-3.09c-0.26-0.86-0.41-1.7-0.41-3.66v-3.47
		c0-3.28-1.36-4.52-4.93-4.52h-3.58v11.64h-3.05V419.42z M155.73,431.47c3.47,0,4.97-1.36,4.97-4.37v-0.68
		c0-3.05-1.32-4.33-4.44-4.33h-4.04v9.38H155.73z"/>
	<path class="st1" d="M181.5,440.21h-8.28l-1.32,5.58h-2.9l6.41-26.37h4.11l6.48,26.37h-3.16L181.5,440.21z M180.82,437.54
		l-3.51-14.69l-3.47,14.69H180.82z"/>
	<polygon class="st1" points="191.41,419.42 194.46,419.42 194.46,431.09 203.42,431.09 203.42,419.42 206.48,419.42 206.48,445.79 
		203.42,445.79 203.42,433.73 194.46,433.73 194.46,445.79 191.41,445.79 	"/>
	<path class="st1" d="M222.15,419.42h7.11c5.05,0,7.46,2.11,7.46,6.52v0.67c0,3.35-1.25,5.23-4.11,5.99v0.04
		c2.86,0.6,4.11,2.49,4.11,6.22v3.32c0,1.28,0.07,2.6,0.49,3.62h-3.09c-0.26-0.86-0.41-1.7-0.41-3.66v-3.47
		c0-3.28-1.36-4.52-4.93-4.52h-3.58v11.64h-3.05V419.42z M228.7,431.47c3.47,0,4.97-1.36,4.97-4.37v-0.68
		c0-3.05-1.32-4.33-4.44-4.33h-4.04v9.38H228.7z"/>
	<polygon class="st1" points="243.25,419.42 256.7,419.42 256.7,422.09 246.3,422.09 246.3,431.09 254.81,431.09 254.81,433.73 
		246.3,433.73 246.3,443.11 256.7,443.11 256.7,445.79 243.25,445.79 	"/>
	<path class="st1" d="M273.57,440.21h-8.28l-1.32,5.58h-2.9l6.41-26.37h4.11l6.48,26.37h-3.16L273.57,440.21z M272.9,437.54
		l-3.51-14.69l-3.47,14.69H272.9z"/>
	<polygon class="st1" points="283.48,419.42 286.54,419.42 286.54,443.11 296.48,443.11 296.48,445.79 283.48,445.79 	"/>
	<polygon class="st1" points="310.72,419.42 324.17,419.42 324.17,422.09 313.78,422.09 313.78,431.09 322.29,431.09 322.29,433.73 
		313.78,433.73 313.78,443.11 324.17,443.11 324.17,445.79 310.72,445.79 	"/>
	<path class="st1" d="M328.96,439.38v-1.09h2.86v1.05c0,2.45,1.62,4.22,4.41,4.22c2.71,0,4.4-1.69,4.4-4.22
		c0-2.74-1.13-3.84-5.39-5.77c-4.93-2.25-6.18-4.37-6.18-7.76c0-3.96,2.64-6.78,7.27-6.78c4.63,0,7.15,2.75,7.15,6.82v0.64h-2.86
		v-0.6c0-2.49-1.54-4.22-4.29-4.22c-2.64,0-4.22,1.69-4.22,4.07c0,2.56,1.17,3.62,5.46,5.58c4.85,2.25,6.06,4.36,6.06,7.95
		c0,4.03-2.63,6.89-7.42,6.89C331.52,446.16,328.96,443.41,328.96,439.38"/>
	<polygon class="st1" points="354.2,422.09 348.06,422.09 348.06,419.42 363.39,419.42 363.39,422.09 357.25,422.09 357.25,445.79 
		354.2,445.79 	"/>
	<path class="st1" d="M377.06,440.21h-8.28l-1.32,5.58h-2.9l6.41-26.37h4.11l6.48,26.37h-3.16L377.06,440.21z M376.39,437.54
		l-3.51-14.69l-3.47,14.69H376.39z"/>
	<polygon class="st1" points="388.86,422.09 382.72,422.09 382.72,419.42 398.05,419.42 398.05,422.09 391.9,422.09 391.9,445.79 
		388.86,445.79 	"/>
	<polygon class="st1" points="403.48,419.42 416.93,419.42 416.93,422.09 406.53,422.09 406.53,431.09 415.04,431.09 415.04,433.73 
		406.53,433.73 406.53,443.11 416.93,443.11 416.93,445.79 403.48,445.79 	"/>
</g>
</svg>
