<?xml version="1.0" encoding="utf-8"?>
<!-- Generator: Adobe Illustrator 26.2.1, SVG Export Plug-In . SVG Version: 6.00 Build 0)  -->
<svg version="1.1" id="Layer_1" xmlns="http://www.w3.org/2000/svg" xmlns:xlink="http://www.w3.org/1999/xlink" x="0px" y="0px"
	 viewBox="0 0 500 500" style="enable-background:new 0 0 500 500;" xml:space="preserve">
<style type="text/css">
	.st0{fill:#CABA9F;}
</style>
<g>
	<path class="st0" d="M326.87,223.86l-36.98,36.98l-36.98,36.98l-36.98,36.98l36.98,36.97l36.98,36.98l-36.98,36.98l-36.98-36.98
		l-36.97-36.98L142,334.79l-36.98-36.98l-36.98-36.98l-36.98-36.98c-20.42,20.42-20.42,53.52,0,73.95l36.98,36.98l36.98,36.97
		L142,408.73l36.98,36.98l36.97,36.98h0.01c20.42,20.42,53.52,20.42,73.94,0l36.98-36.98l36.98-36.98l36.98-36.98l36.98-36.97
		l36.97-36.98c20.43-20.43,20.43-53.53,0-73.95l-36.98,36.98l-36.97,36.98l-36.98,36.98l-36.98,36.97l-36.98-36.97l36.98-36.98
		l36.98-36.98l36.98-36.98l36.98-36.98l-36.98-36.98l-36.98,36.98L326.87,223.86z"/>
	<polygon class="st0" points="252.92,149.91 215.94,112.94 178.97,75.96 141.99,112.94 105.02,149.91 68.05,186.89 105.02,223.87 
		141.99,186.89 178.97,149.91 215.94,186.89 178.97,223.87 141.99,260.84 178.97,297.81 215.94,260.84 252.92,223.87 289.89,186.89 
		326.87,149.91 363.85,112.94 326.87,75.96 289.89,112.94 	"/>
	<polygon class="st0" points="268.67,17.77 252.92,2.01 205.66,49.28 252.92,96.54 300.18,49.28 284.43,33.53 251.24,66.7 
		235.49,50.95 	"/>
</g>
</svg>
